<svg width="68" height="68" viewBox="0 0 68 68" fill="none" xmlns="http://www.w3.org/2000/svg">
<g filter="url(#filter0_d_66_2636)">
<rect x="6" y="6" width="56" height="56" rx="11" stroke="#FF007F" stroke-width="2"/>
<path d="M31.9167 23.5833C30.8116 23.5833 29.7518 24.0222 28.9704 24.8036C28.189 25.585 27.75 26.6448 27.75 27.7499V31.9166C27.75 33.0217 28.189 34.0815 28.9704 34.8629C29.7518 35.6443 30.8116 36.0833 31.9167 36.0833H36.0833V40.2499H27.75V44.4166H36.0833C37.1884 44.4166 38.2482 43.9776 39.0296 43.1962C39.811 42.4148 40.25 41.355 40.25 40.2499V36.0833C40.25 34.9782 39.811 33.9184 39.0296 33.137C38.2482 32.3556 37.1884 31.9166 36.0833 31.9166H31.9167V27.7499H40.25V23.5833H31.9167Z" fill="#FFD6EB"/>
</g>
<defs>
<filter id="filter0_d_66_2636" x="0" y="0" width="68" height="68" filterUnits="userSpaceOnUse" color-interpolation-filters="sRGB">
<feFlood flood-opacity="0" result="BackgroundImageFix"/>
<feColorMatrix in="SourceAlpha" type="matrix" values="0 0 0 0 0 0 0 0 0 0 0 0 0 0 0 0 0 0 127 0" result="hardAlpha"/>
<feOffset/>
<feGaussianBlur stdDeviation="2.5"/>
<feColorMatrix type="matrix" values="0 0 0 0 1 0 0 0 0 0 0 0 0 0 0.498039 0 0 0 1 0"/>
<feBlend mode="normal" in2="BackgroundImageFix" result="effect1_dropShadow_66_2636"/>
<feBlend mode="normal" in="SourceGraphic" in2="effect1_dropShadow_66_2636" result="shape"/>
</filter>
</defs>
</svg>
