<svg width="25" height="25" viewBox="0 0 25 25" fill="none" xmlns="http://www.w3.org/2000/svg">
<path d="M10.4163 15.6252L15.8226 12.5002L10.4163 9.37516V15.6252ZM22.458 7.46891C22.5934 7.9585 22.6872 8.61475 22.7497 9.44808C22.8226 10.2814 22.8538 11.0002 22.8538 11.6252L22.9163 12.5002C22.9163 14.7814 22.7497 16.4585 22.458 17.5314C22.1976 18.4689 21.5934 19.0731 20.6559 19.3335C20.1663 19.4689 19.2705 19.5627 17.8955 19.6252C16.5413 19.6981 15.3018 19.7293 14.1559 19.7293L12.4997 19.7918C8.13509 19.7918 5.41634 19.6252 4.34342 19.3335C3.40592 19.0731 2.80176 18.4689 2.54134 17.5314C2.40592 17.0418 2.31217 16.3856 2.24967 15.5522C2.17676 14.7189 2.14551 14.0002 2.14551 13.3752L2.08301 12.5002C2.08301 10.2189 2.24967 8.54183 2.54134 7.46891C2.80176 6.53141 3.40592 5.92725 4.34342 5.66683C4.83301 5.53141 5.72884 5.43766 7.10384 5.37516C8.45801 5.30225 9.69759 5.271 10.8434 5.271L12.4997 5.2085C16.8643 5.2085 19.583 5.37516 20.6559 5.66683C21.5934 5.92725 22.1976 6.53141 22.458 7.46891Z" fill="#F9FAFB"/>
</svg>
