<svg width="28" height="28" viewBox="0 0 28 28" fill="none" xmlns="http://www.w3.org/2000/svg">
<path d="M14.8007 16.0454C14.7438 16.0694 14.8707 16.4719 14.886 16.5069C15.002 16.7979 15.271 16.9904 15.4023 17.2725C15.562 17.6182 15.5729 18.0119 15.4307 18.3685C15.341 18.5938 15.1376 18.7579 15.4526 18.9088C15.6429 18.9985 15.7457 18.7994 15.8529 18.6769C15.9623 18.5522 16.0563 18.4122 16.1307 18.2635C16.3451 17.8304 16.3538 17.3382 16.181 16.8875C16.1613 16.835 16.1395 16.7825 16.1154 16.7322C16.1154 16.7322 16.9488 16.2532 16.1198 15.4722C16.1176 15.4722 14.8051 16.0454 14.8007 16.0454ZM20.1798 10.5219C19.8582 10.511 19.7401 10.3819 19.7401 10.0494C19.7401 9.94661 19.7729 9.77818 19.8451 9.64911C19.9173 9.52005 20.1491 9.49161 20.3329 9.49161C20.5538 9.49161 20.7223 9.42599 20.8338 9.29911C20.9848 9.12849 20.9629 8.91849 20.9607 8.89443C20.9541 8.84231 20.9286 8.79441 20.8892 8.75976C20.8497 8.72511 20.7989 8.7061 20.7463 8.7063H19.7576C19.6373 8.7063 19.541 8.80255 19.541 8.92286C19.541 9.00818 19.2982 9.11099 19.1276 9.13943C18.8104 9.13943 18.6376 8.86161 18.631 8.85068C18.5916 8.78505 18.5216 8.74349 18.4451 8.74349H17.6357C17.5307 8.74349 17.4432 8.81786 17.4235 8.92068L16.8482 12.0313C16.8373 12.0926 16.8526 12.156 16.8898 12.2041C16.9291 12.2522 16.986 12.2829 17.0473 12.2851L21.1116 12.5016H21.1226C21.1797 12.5018 21.2346 12.4794 21.2752 12.4392C21.3158 12.399 21.3388 12.3444 21.3391 12.2872V11.5851C21.3391 10.8501 20.7638 10.5219 20.1798 10.5219Z" fill="#426369"/>
<path d="M0.527344 8.93367C0.527344 8.93367 0.553594 8.32554 0.932031 8.35835C1.31047 8.39117 2.36047 8.35835 2.36047 8.35835L4.08641 8.71054H9.29266C9.29266 8.71054 9.77828 8.32773 10.533 8.2621C11.2877 8.19867 17.2223 8.2621 17.2223 8.2621C17.2223 8.2621 17.8611 8.00617 17.8611 8.93367C17.8611 8.93367 18.0602 10.9812 20.917 11.3596H21.8336C21.8336 11.3596 22.3214 11.3924 22.3214 11.6046L22.0764 17.0318L17.6161 17.2724C17.6161 17.2724 17.0342 16.1984 16.0083 16.1984H12.8517C12.8517 16.1984 12.2348 16.3384 12.2305 16.7912H11.2898C11.2898 16.7912 11.2045 16.4412 10.6664 16.4412C10.1261 16.4412 9.64047 16.334 9.64047 15.6865C9.64047 15.039 9.53328 13.4159 9.15484 12.904V12.6152H0.796406C0.796406 12.6152 0.527344 12.1274 0.527344 11.4755V8.99929" fill="#66949E"/>
<path d="M10.4214 15.9468C10.4214 15.9468 10.9136 15.9643 11.2417 16.6446C11.3533 16.8765 11.3445 18.1299 12.1758 19.134C12.6045 19.6524 13.4204 20.0637 14.4814 20.1971C16.4217 20.4421 17.9311 19.9106 18.4933 18.4427C18.7317 17.8193 18.8651 17.5174 19.3508 17.5459L19.4251 17.034L17.4608 16.7015C17.4608 16.7015 17.6554 17.3359 17.7058 17.734C17.8129 18.5587 16.7192 19.8821 14.4529 19.4949C12.342 19.134 12.3311 17.9987 12.2501 17.4606C12.1692 16.9224 12.2589 16.0234 12.5389 16.0409L12.4995 15.6646L10.4608 15.6252L10.4214 15.9468Z" fill="#66949E"/>
<path d="M18.7012 17.955V16.881C18.7012 16.881 18.6924 16.1022 19.2984 15.6297C20.0465 15.0479 21.1315 13.6566 21.2759 12.3616C21.2759 12.3616 21.2037 11.9307 22.1399 11.9307C23.074 11.9307 22.9624 12.121 23.4349 12.7947C23.8199 13.3438 25.0318 13.8185 26.0731 15.4438C27.0902 17.0319 27.9456 20.7507 27.729 23.181C27.729 23.181 27.6043 24.1457 26.5456 24.1457H23.8309C23.8309 24.1457 22.934 24.1391 22.7502 23.9379C22.5446 23.7125 22.6627 23.531 22.4681 23.2357C22.339 23.0432 22.2274 23.0082 22.0852 22.9229C21.7527 22.7238 21.6959 22.5072 21.6959 22.2688C21.6959 22.0654 21.674 21.4507 21.674 21.0941C21.674 20.7288 21.6281 19.4229 21.0615 18.6507C20.6831 18.1366 19.8737 17.6444 18.7012 17.955Z" fill="#5E3832"/>
<path d="M0.527031 11.502C0.686503 11.502 0.815781 10.9271 0.815781 10.2179C0.815781 9.50873 0.686503 8.93384 0.527031 8.93384C0.367559 8.93384 0.238281 9.50873 0.238281 10.2179C0.238281 10.9271 0.367559 11.502 0.527031 11.502Z" fill="#66949E"/>
<path d="M0.526855 8.93384H17.8606V11.4735H0.526855V8.93384Z" fill="#66949E"/>
<path d="M9.14378 10.0603H0.66503C0.66503 10.0603 0.64753 9.72123 0.71753 9.51342C0.783155 9.3231 0.877218 9.35592 0.877218 9.35592H9.14378V10.0603ZM9.68847 9.35592H10.7363V10.0603H9.68847V9.35592Z" fill="white"/>
<path d="M11.4863 9.25317H17.0316V14.1882H11.4863V9.25317Z" fill="#66949E"/>
<path d="M17.0341 14.4026H11.4866C11.3663 14.4026 11.27 14.3063 11.27 14.186V9.25318C11.27 9.13287 11.3663 9.03662 11.4866 9.03662H17.0319C17.1522 9.03662 17.2485 9.13287 17.2485 9.25318V14.186C17.2485 14.3063 17.1522 14.4026 17.0341 14.4026ZM11.7031 13.9716H16.8175V9.46975H11.7031V13.9716Z" fill="#426369"/>
<path d="M11.4868 11.2H14.4224V12.2346H11.4868V11.2Z" fill="#426369"/>
<path d="M14.4244 12.4512H11.4866C11.3663 12.4512 11.27 12.355 11.27 12.2346V11.2C11.27 11.0796 11.3663 10.9834 11.4866 10.9834H14.4222C14.5403 10.9834 14.6388 11.0796 14.6388 11.2V12.2346C14.6388 12.355 14.5425 12.4512 14.4244 12.4512ZM11.7031 12.0181H14.2078V11.4143H11.7031V12.0181Z" fill="#426369"/>
<path d="M14.4243 12.2346C14.9958 12.2346 15.459 12.0025 15.459 11.7162C15.459 11.4299 14.9958 11.1978 14.4243 11.1978C13.8529 11.1978 13.3896 11.4299 13.3896 11.7162C13.3896 12.0025 13.8529 12.2346 14.4243 12.2346Z" fill="#426369"/>
<path d="M14.4244 12.4512C13.7112 12.4512 13.1753 12.1362 13.1753 11.7184C13.1753 11.3006 13.7134 10.9856 14.4244 10.9856C15.1375 10.9856 15.6734 11.3006 15.6734 11.7184C15.6734 12.1362 15.1353 12.4512 14.4244 12.4512ZM14.4244 11.4143C13.9169 11.4143 13.6062 11.609 13.6062 11.7162C13.6062 11.8234 13.9169 12.0181 14.4244 12.0181C14.9319 12.0181 15.2425 11.8234 15.2425 11.7162C15.2425 11.6112 14.9319 11.4143 14.4244 11.4143Z" fill="#426369"/>
</svg>
