<svg width="28" height="28" viewBox="0 0 28 28" fill="none" xmlns="http://www.w3.org/2000/svg">
<g clip-path="url(#clip0_63_2334)">
<path d="M23.3335 17.8888H25.6668L27.2224 13.2222H24.8891L23.3335 17.8888Z" fill="#414042"/>
<path d="M22.5554 14.7779C22.5554 14.7779 20.222 11.6667 19.4443 11.6667H12.4443L7.7776 15.5556L3.04793 16.9323C2.56571 17.1011 1.92015 17.427 1.8346 17.889L-0.000181612 25.6667C-0.0974038 26.1692 0.348263 26.4445 0.777596 26.4445H27.222C27.4283 26.4445 27.6262 26.3626 27.772 26.2167C27.9179 26.0709 27.9998 25.873 27.9998 25.6667V16.3334C27.9998 14.7779 22.5554 14.7779 22.5554 14.7779Z" fill="#F4900C"/>
<path d="M12.5177 15.5557L8.55566 26.4446H17.889L21.7779 15.5557H12.5177Z" fill="#3B88C3"/>
<path d="M6.22244 27.2222C7.94066 27.2222 9.33355 25.8293 9.33355 24.1111C9.33355 22.3929 7.94066 21 6.22244 21C4.50422 21 3.11133 22.3929 3.11133 24.1111C3.11133 25.8293 4.50422 27.2222 6.22244 27.2222Z" fill="#292F33"/>
<path d="M6.22206 25.6668C7.08117 25.6668 7.77762 24.9703 7.77762 24.1112C7.77762 23.2521 7.08117 22.5557 6.22206 22.5557C5.36295 22.5557 4.6665 23.2521 4.6665 24.1112C4.6665 24.9703 5.36295 25.6668 6.22206 25.6668Z" fill="#58595B"/>
<path d="M22.5554 27.2222C24.2737 27.2222 25.6666 25.8293 25.6666 24.1111C25.6666 22.3929 24.2737 21 22.5554 21C20.8372 21 19.4443 22.3929 19.4443 24.1111C19.4443 25.8293 20.8372 27.2222 22.5554 27.2222Z" fill="#292F33"/>
<path d="M22.5556 25.6668C23.4147 25.6668 24.1111 24.9703 24.1111 24.1112C24.1111 23.2521 23.4147 22.5557 22.5556 22.5557C21.6964 22.5557 21 23.2521 21 24.1112C21 24.9703 21.6964 25.6668 22.5556 25.6668Z" fill="#58595B"/>
<path d="M15.1666 23.3334C16.67 23.3334 17.8888 22.1146 17.8888 20.6111C17.8888 19.1077 16.67 17.8889 15.1666 17.8889C13.6631 17.8889 12.4443 19.1077 12.4443 20.6111C12.4443 22.1146 13.6631 23.3334 15.1666 23.3334Z" fill="white"/>
<path d="M16.376 19.6326C16.376 19.9756 16.2282 20.2751 15.9296 20.4664C16.3216 20.6453 16.5938 21.0101 16.5938 21.4417C16.5938 22.0951 15.9957 22.6449 15.2218 22.6449C14.4152 22.6449 13.9136 22.0507 13.9136 21.6214C13.9136 21.4091 14.1368 21.2566 14.3328 21.2566C14.7038 21.2566 14.6159 21.8928 15.2319 21.8928C15.2989 21.894 15.3655 21.8817 15.4277 21.8568C15.4899 21.8319 15.5464 21.7948 15.5941 21.7477C15.6418 21.7006 15.6796 21.6445 15.7053 21.5826C15.7309 21.5207 15.744 21.4543 15.7437 21.3873C15.7437 20.6251 14.8174 21.1851 14.8174 20.5426C14.8174 19.9717 15.5912 20.3575 15.5912 19.7524C15.5912 19.5455 15.445 19.3876 15.1985 19.3876C14.6812 19.3876 14.752 19.9212 14.3818 19.9212C14.1578 19.9212 14.0271 19.7205 14.0271 19.5183C14.0271 19.0928 14.6105 18.6355 15.2148 18.6355C15.9996 18.6363 16.376 19.2087 16.376 19.6326Z" fill="#231F20"/>
<path d="M23.3335 13.9999L24.1113 13.2221L28.0002 12.4443V13.9999H23.3335Z" fill="#F4900C"/>
<path d="M13.2224 12.4443H19.4446V15.5554H9.3335L13.2224 12.4443Z" fill="#88C9F9"/>
<path d="M4.66678 18.6667C4.66678 18.873 4.58483 19.0708 4.43897 19.2167C4.29311 19.3625 4.09528 19.4445 3.889 19.4445H2.33344C2.12716 19.4445 1.92933 19.3625 1.78347 19.2167C1.63761 19.0708 1.55566 18.873 1.55566 18.6667C1.55566 18.4604 1.63761 18.2626 1.78347 18.1167C1.92933 17.9709 2.12716 17.8889 2.33344 17.8889H3.889C4.09528 17.8889 4.29311 17.9709 4.43897 18.1167C4.58483 18.2626 4.66678 18.4604 4.66678 18.6667Z" fill="#FFCC4D"/>
<path d="M27.9999 17.1111H27.2221C27.0158 17.1111 26.818 17.193 26.6721 17.3389C26.5263 17.4848 26.4443 17.6826 26.4443 17.8889V18.6666C26.4443 18.8729 26.5263 19.0708 26.6721 19.2166C26.818 19.3625 27.0158 19.4444 27.2221 19.4444H27.9999V17.1111Z" fill="#DD2E44"/>
</g>
<defs>
<clipPath id="clip0_63_2334">
<rect width="28" height="28" fill="white"/>
</clipPath>
</defs>
</svg>
