<svg width="25" height="25" viewBox="0 0 25 25" fill="none" xmlns="http://www.w3.org/2000/svg">
<path d="M2.5 25C1.8125 25 1.22417 24.6943 0.735 24.0828C0.245833 23.4714 0.000833333 22.7354 0 21.875V3.125C0 2.26562 0.245 1.53021 0.735 0.91875C1.225 0.307291 1.81333 0.00104167 2.5 0H22.5C23.1875 0 23.7762 0.30625 24.2662 0.91875C24.7562 1.53125 25.0008 2.26667 25 3.125V21.875C25 22.7344 24.7554 23.4703 24.2662 24.0828C23.7771 24.6953 23.1883 25.001 22.5 25H2.5ZM12.5 14.0625L22.5 6.25V3.125L12.5 10.9375L2.5 3.125V6.25L12.5 14.0625Z" fill="#FF007F"/>
</svg>
