<svg width="28" height="28" viewBox="0 0 28 28" fill="none" xmlns="http://www.w3.org/2000/svg">
<path d="M22.3698 23.485H5.63047C5.33456 23.4853 5.05087 23.6031 4.84174 23.8124C4.63261 24.0218 4.51514 24.3056 4.51514 24.6015V25.718C4.51514 26.334 5.01447 26.8333 5.63047 26.8333H22.3698C22.5164 26.8335 22.6615 26.8048 22.797 26.7488C22.9324 26.6928 23.0555 26.6107 23.1592 26.5071C23.2629 26.4035 23.3452 26.2805 23.4013 26.1451C23.4574 26.0097 23.4863 25.8646 23.4863 25.718V24.6015C23.4863 24.3054 23.3687 24.0214 23.1593 23.812C22.9499 23.6026 22.6659 23.485 22.3698 23.485ZM22.3698 23.485C22.3698 22.8931 22.1347 22.3254 21.7161 21.9069C21.2976 21.4883 20.7299 21.2532 20.138 21.2532H7.8623C7.27038 21.2532 6.70271 21.4883 6.28416 21.9069C5.86561 22.3254 5.63047 22.8931 5.63047 23.485H22.3698Z" fill="#C77F67"/>
<path d="M22.3698 23.485H5.63047M22.3698 23.485C22.6659 23.485 22.9499 23.6026 23.1593 23.812C23.3687 24.0214 23.4863 24.3054 23.4863 24.6015V25.718C23.4863 25.8646 23.4574 26.0097 23.4013 26.1451C23.3452 26.2805 23.2629 26.4035 23.1592 26.5071C23.0555 26.6107 22.9324 26.6928 22.797 26.7488C22.6615 26.8048 22.5164 26.8335 22.3698 26.8333H5.63047C5.01447 26.8333 4.51514 26.334 4.51514 25.718V24.6015C4.51514 24.3056 4.63261 24.0218 4.84174 23.8124C5.05087 23.6031 5.33456 23.4853 5.63047 23.485M22.3698 23.485C22.3698 22.8931 22.1347 22.3254 21.7161 21.9069C21.2976 21.4883 20.7299 21.2532 20.138 21.2532H7.8623C7.27038 21.2532 6.70271 21.4883 6.28416 21.9069C5.86561 22.3254 5.63047 22.8931 5.63047 23.485" stroke="#191919" stroke-width="1.41667" stroke-linecap="round" stroke-linejoin="round"/>
<path d="M11.7319 1.37207C14.4113 1.88225 16.8285 3.31143 18.5669 5.41313C20.3053 7.51483 21.2557 10.1573 21.2543 12.8847V19.0214" stroke="#191919" stroke-width="1.41667" stroke-linecap="round" stroke-linejoin="round"/>
<path d="M7.86347 21.2532H20.1368C19.4033 19.7858 19.0214 18.1677 19.0215 16.5271V12.8847C19.0216 10.5181 18.137 8.2369 16.5414 6.48907C14.9458 4.74125 12.7543 3.65308 10.3975 3.43825C10.1237 2.8236 9.69445 2.29088 9.15212 1.89257C8.60979 1.49426 7.97306 1.24411 7.30464 1.16675C7.15693 1.16736 7.01544 1.22631 6.91099 1.33076C6.80654 1.43521 6.74759 1.5767 6.74697 1.72441V4.24441C6.05982 4.70301 5.49656 5.32421 5.10722 6.05283C4.71787 6.78146 4.51449 7.59496 4.51514 8.42108V13.4424C4.51545 13.7381 4.63305 14.0216 4.84215 14.2307C5.05125 14.4398 5.33476 14.5574 5.63047 14.5577H6.74697C7.06882 14.5577 7.38199 14.4534 7.63947 14.2602C7.89695 14.0671 8.08485 13.7957 8.17497 13.4867L8.64397 11.8802C8.70077 11.6874 8.81832 11.518 8.97913 11.3974C9.13995 11.2767 9.33542 11.2112 9.53647 11.2106C9.98049 11.2106 10.4063 11.0342 10.7203 10.7202C11.0343 10.4063 11.2106 9.98043 11.2106 9.53641C11.2087 11.595 10.6317 13.6122 9.54464 15.3604C8.44116 17.1275 7.85926 19.1699 7.86347 21.2532Z" fill="#E3BFB3"/>
<path d="M8.08496 19.0215C7.93658 19.7561 7.86232 20.5038 7.86329 21.2533H20.1366C19.7808 20.5427 19.5068 19.7939 19.32 19.0215H8.08496Z" fill="#C77F67"/>
<path d="M7.86347 21.2532H20.1368C19.4033 19.7858 19.0214 18.1677 19.0215 16.5271V12.8847C19.0216 10.5181 18.137 8.2369 16.5414 6.48907C14.9458 4.74125 12.7543 3.65308 10.3975 3.43825C10.1237 2.8236 9.69445 2.29088 9.15212 1.89257C8.60979 1.49426 7.97306 1.24411 7.30464 1.16675C7.15693 1.16736 7.01544 1.22631 6.91099 1.33076C6.80654 1.43521 6.74759 1.5767 6.74697 1.72441V4.24441C6.05982 4.70301 5.49656 5.32421 5.10722 6.05283C4.71787 6.78145 4.51449 7.59496 4.51514 8.42108V13.4424C4.51545 13.7381 4.63305 14.0216 4.84215 14.2307C5.05125 14.4398 5.33476 14.5574 5.63047 14.5577H6.74697C7.06882 14.5577 7.38199 14.4534 7.63947 14.2602C7.89695 14.0671 8.08485 13.7957 8.17497 13.4867L8.64397 11.8802C8.70077 11.6874 8.81832 11.518 8.97913 11.3974C9.13995 11.2767 9.33542 11.2112 9.53647 11.2106C9.98049 11.2106 10.4063 11.0342 10.7203 10.7202C11.0343 10.4063 11.2106 9.98043 11.2106 9.53641C11.2087 11.595 10.6317 13.6122 9.54464 15.3604C8.44116 17.1275 7.85926 19.1699 7.86347 21.2532Z" stroke="#191919" stroke-width="1.41667" stroke-linecap="round" stroke-linejoin="round"/>
</svg>
