<svg width="28" height="28" viewBox="0 0 28 28" fill="none" xmlns="http://www.w3.org/2000/svg">
<g clip-path="url(#clip0_63_2257)">
<path d="M26.3091 1.68219C25.7885 1.16156 25.0951 0.875 24.3601 0.875C23.6251 0.875 22.9316 1.16156 22.411 1.68219C21.337 2.75844 21.337 4.50844 22.411 5.58469C22.9316 6.10531 23.6251 6.39187 24.3601 6.39187C25.0973 6.39187 25.7885 6.10531 26.3113 5.58469C27.3854 4.50844 27.3854 2.75844 26.3091 1.68219ZM23.2707 2.54406C23.5616 2.25313 23.9488 2.09344 24.3579 2.09344C24.767 2.09344 25.1563 2.25313 25.4473 2.54406C26.0488 3.14563 26.0488 4.12344 25.4473 4.72281C25.3045 4.86618 25.1347 4.97982 24.9477 5.05716C24.7607 5.13451 24.5602 5.17403 24.3579 5.17344C23.9466 5.17344 23.5595 5.01375 23.2707 4.72281C22.6713 4.12344 22.6713 3.14563 23.2707 2.54406Z" fill="#E2A610"/>
<path d="M23.0804 6.77038L21.2275 4.91537L22.5488 3.59194C22.6899 3.45114 22.881 3.37207 23.0804 3.37207C23.2797 3.37207 23.4708 3.45114 23.6119 3.59194L24.4038 4.38381C24.5444 4.52452 24.6235 4.71533 24.6235 4.91428C24.6235 5.11324 24.5444 5.30405 24.4038 5.44475L23.0804 6.77038Z" fill="#FFCA28"/>
<path d="M23.5572 6.29119C23.5572 6.29119 23.8482 5.70712 23.0672 4.92619C22.2863 4.14525 21.6957 4.44494 21.6957 4.44494L21.2275 4.91525L23.0804 6.77025L23.5572 6.29119Z" fill="#E2A610"/>
<path d="M13.6435 27.125C20.6905 27.125 26.4032 21.4084 26.4032 14.3566C26.4032 7.30476 20.6905 1.58813 13.6435 1.58813C6.59649 1.58813 0.883789 7.30476 0.883789 14.3566C0.883789 21.4084 6.59649 27.125 13.6435 27.125Z" fill="#FFCA28"/>
<path d="M13.6435 24.7079C19.3567 24.7079 23.9882 20.0735 23.9882 14.3566C23.9882 8.63978 19.3567 4.00537 13.6435 4.00537C7.9303 4.00537 3.29883 8.63978 3.29883 14.3566C3.29883 20.0735 7.9303 24.7079 13.6435 24.7079Z" fill="white"/>
<path d="M15.0454 15.7609L13.6432 21.8225L12.241 15.7609L6.18164 14.3566L12.241 12.9544L13.6432 6.89062L15.0454 12.9544L21.1048 14.3566L15.0454 15.7609Z" fill="#E0C3AB"/>
<path d="M15.6253 14.3566L18.9197 19.6372L13.6434 16.3406L8.36719 19.6372L11.6616 14.3566L8.36719 9.07812L13.6434 12.3725L18.9197 9.07812L15.6253 14.3566Z" fill="#B2947C"/>
<path opacity="0.32" d="M11.0359 19.0182C11.0359 19.0182 13.8403 17.0297 14.9034 15.9666C15.9687 14.9057 18.2131 11.7841 18.2131 11.7841C18.8147 11.1169 19.4906 9.43037 19.6787 8.94037C19.6984 8.88787 19.6481 8.83537 19.5956 8.85506C19.1669 9.01912 17.8084 9.55506 16.8612 10.1588C15.6778 10.9157 13.5603 12.646 12.5737 13.6326C11.5872 14.6191 10.3053 16.5201 9.57686 17.5547C8.96873 18.421 8.20748 20.031 7.97779 20.5319C7.95154 20.5866 8.00842 20.6435 8.06311 20.6194C8.57936 20.4029 10.2528 19.6657 11.0359 19.0182Z" fill="#212121"/>
<path d="M18.0818 11.4756C18.7075 10.6772 19.3003 9.10439 19.4753 8.61658C19.4971 8.55752 19.4403 8.50064 19.379 8.52033C18.8912 8.69533 17.3206 9.29033 16.5221 9.91595C15.5706 10.6619 12.4053 13.2628 12.4053 13.2628L14.735 15.5947C14.7371 15.5947 17.3359 12.4272 18.0818 11.4756Z" fill="#F44336"/>
<path d="M9.05837 17.3862C8.43275 18.1846 7.83994 19.7574 7.66494 20.2452C7.64306 20.3043 7.69994 20.3612 7.76119 20.3415C8.249 20.1665 9.81962 19.5715 10.6181 18.9458C11.5696 18.1999 14.7349 15.599 14.7349 15.599L12.4031 13.2671C12.4031 13.2671 9.80431 16.4324 9.05837 17.3862Z" fill="#2F7889"/>
<path d="M13.5693 16.089C14.4826 16.089 15.223 15.3476 15.223 14.433C15.223 13.5185 14.4826 12.7771 13.5693 12.7771C12.6559 12.7771 11.9155 13.5185 11.9155 14.433C11.9155 15.3476 12.6559 16.089 13.5693 16.089Z" fill="#94D1E0"/>
<path d="M19.7882 8.2076C19.6474 8.06652 19.5684 7.87535 19.5684 7.67604C19.5684 7.47672 19.6474 7.28555 19.7882 7.14447L20.567 6.36572L21.6301 7.42885L20.8535 8.2076C20.7837 8.2778 20.7007 8.33351 20.6093 8.37152C20.5179 8.40954 20.4199 8.42911 20.3209 8.42911C20.2219 8.42911 20.1239 8.40954 20.0324 8.37152C19.941 8.33351 19.858 8.2778 19.7882 8.2076Z" fill="#F44336"/>
<path d="M7.49861 20.5057C7.63941 20.6468 7.71848 20.8379 7.71848 21.0373C7.71848 21.2366 7.63941 21.4277 7.49861 21.5688L6.71986 22.3476L5.65674 21.2845L6.4333 20.5057C6.57475 20.3648 6.76629 20.2856 6.96596 20.2856C7.16563 20.2856 7.35716 20.3648 7.49861 20.5057Z" fill="#B2947C"/>
<path d="M22.3343 14.3565C22.3343 13.9409 22.6712 13.604 23.0868 13.604H24.1849V15.109H23.0868C22.8872 15.109 22.6958 15.0297 22.5547 14.8886C22.4136 14.7475 22.3343 14.5561 22.3343 14.3565ZM4.95463 14.3565C4.95463 14.7721 4.61775 15.109 4.20213 15.109H3.104V13.604H4.20213C4.61775 13.604 4.95463 13.9409 4.95463 14.3565Z" fill="#E0C3AB"/>
<path d="M19.7882 20.5057C19.9293 20.3649 20.1205 20.2859 20.3198 20.2859C20.5191 20.2859 20.7103 20.3649 20.8514 20.5057L21.6279 21.2845L20.5648 22.3476L19.7861 21.5688C19.6461 21.4272 19.5678 21.236 19.5682 21.0368C19.5686 20.8377 19.6477 20.6468 19.7882 20.5057ZM7.49887 8.2076C7.35779 8.34839 7.16662 8.42746 6.9673 8.42746C6.76799 8.42746 6.57682 8.34839 6.43574 8.2076L5.65918 7.42885L6.7223 6.36572L7.50105 7.14447C7.64103 7.28612 7.71934 7.47735 7.71893 7.67649C7.71852 7.87562 7.63942 8.06653 7.49887 8.2076Z" fill="#B2947C"/>
<path d="M13.6436 23.0518C14.0592 23.0518 14.3961 23.3887 14.3961 23.8043V24.9046H12.8933V23.8043C12.8929 23.7055 12.912 23.6077 12.9495 23.5163C12.987 23.425 13.0422 23.3419 13.112 23.272C13.1817 23.2021 13.2646 23.1466 13.3558 23.1088C13.447 23.071 13.5449 23.0516 13.6436 23.0518ZM13.6436 5.66116C13.444 5.66116 13.2526 5.58188 13.1115 5.44076C12.9704 5.29964 12.8911 5.10824 12.8911 4.90866V3.80835H14.3939V4.90866C14.3961 5.32429 14.0592 5.66116 13.6436 5.66116Z" fill="#E0C3AB"/>
<path d="M13.6435 24.7079C19.3567 24.7079 23.9882 20.0735 23.9882 14.3566C23.9882 8.63978 19.3567 4.00537 13.6435 4.00537C7.9303 4.00537 3.29883 8.63978 3.29883 14.3566C3.29883 20.0735 7.9303 24.7079 13.6435 24.7079Z" stroke="#E2A610" stroke-width="0.796875" stroke-miterlimit="10"/>
<path d="M1.9075 14.2012C1.9075 14.2012 1.44375 11.8518 2.67969 8.94242C4.50406 4.65054 8.44375 2.28804 12.6809 2.10429C15.8594 1.96648 17.6925 3.01429 17.6925 3.01429C17.6925 3.01429 15.1069 2.8021 13.3241 2.88085C9.02344 3.07117 6.03531 5.03335 3.98781 8.38898C2.30344 11.154 1.9075 14.2012 1.9075 14.2012Z" fill="#FFF59D"/>
</g>
<defs>
<clipPath id="clip0_63_2257">
<rect width="28" height="28" fill="white"/>
</clipPath>
</defs>
</svg>
