<svg width="60" height="130" viewBox="0 0 60 130" fill="none" xmlns="http://www.w3.org/2000/svg">
<g opacity="0.9">
<rect width="60" height="130" fill="#131927"/>
<g clip-path="url(#clip0_1005_14775)">
<path fill-rule="evenodd" clip-rule="evenodd" d="M40.15 62.3498C40.8522 63.0529 41.2467 64.006 41.2467 64.9998C41.2467 65.9935 40.8522 66.9467 40.15 67.6498L26.01 81.7948C25.3065 82.4979 24.3525 82.8928 23.3578 82.8926C22.3632 82.8924 21.4094 82.497 20.7062 81.7935C20.0031 81.09 19.6082 80.136 19.6084 79.1414C19.6086 78.1467 20.004 77.1929 20.7075 76.4898L32.1975 64.9998L20.7075 53.5098C20.024 52.8028 19.6456 51.8558 19.6537 50.8725C19.6618 49.8893 20.0557 48.9485 20.7507 48.2529C21.4456 47.5573 22.386 47.1625 23.3692 47.1535C24.3524 47.1445 25.2999 47.522 26.0075 48.2048L40.1525 62.3473L40.15 62.3498Z" fill="#F9FAFB"/>
</g>
</g>
<defs>
<clipPath id="clip0_1005_14775">
<rect width="60" height="60" fill="white" transform="translate(0 35)"/>
</clipPath>
</defs>
</svg>
