<svg width="95" height="18" viewBox="0 0 95 18" fill="none" xmlns="http://www.w3.org/2000/svg">
<path d="M7.524 14.18C6.564 14.18 5.67 14.024 4.842 13.712C4.026 13.388 3.312 12.938 2.7 12.362C2.1 11.774 1.632 11.084 1.296 10.292C0.96 9.5 0.792 8.636 0.792 7.7C0.792 6.764 0.96 5.9 1.296 5.108C1.632 4.316 2.106 3.632 2.718 3.056C3.33 2.468 4.044 2.018 4.86 1.706C5.676 1.382 6.57 1.22 7.542 1.22C8.574 1.22 9.516 1.4 10.368 1.76C11.22 2.108 11.94 2.63 12.528 3.326L11.016 4.748C10.56 4.256 10.05 3.89 9.486 3.65C8.922 3.398 8.31 3.272 7.65 3.272C6.99 3.272 6.384 3.38 5.832 3.596C5.292 3.812 4.818 4.118 4.41 4.514C4.014 4.91 3.702 5.378 3.474 5.918C3.258 6.458 3.15 7.052 3.15 7.7C3.15 8.348 3.258 8.942 3.474 9.482C3.702 10.022 4.014 10.49 4.41 10.886C4.818 11.282 5.292 11.588 5.832 11.804C6.384 12.02 6.99 12.128 7.65 12.128C8.31 12.128 8.922 12.008 9.486 11.768C10.05 11.516 10.56 11.138 11.016 10.634L12.528 12.074C11.94 12.758 11.22 13.28 10.368 13.64C9.516 14 8.568 14.18 7.524 14.18ZM18.505 14.126C17.521 14.126 16.645 13.916 15.877 13.496C15.109 13.064 14.503 12.476 14.059 11.732C13.615 10.988 13.393 10.142 13.393 9.194C13.393 8.234 13.615 7.388 14.059 6.656C14.503 5.912 15.109 5.33 15.877 4.91C16.645 4.49 17.521 4.28 18.505 4.28C19.501 4.28 20.383 4.49 21.151 4.91C21.931 5.33 22.537 5.906 22.969 6.638C23.413 7.37 23.635 8.222 23.635 9.194C23.635 10.142 23.413 10.988 22.969 11.732C22.537 12.476 21.931 13.064 21.151 13.496C20.383 13.916 19.501 14.126 18.505 14.126ZM18.505 12.2C19.057 12.2 19.549 12.08 19.981 11.84C20.413 11.6 20.749 11.252 20.989 10.796C21.241 10.34 21.367 9.806 21.367 9.194C21.367 8.57 21.241 8.036 20.989 7.592C20.749 7.136 20.413 6.788 19.981 6.548C19.549 6.308 19.063 6.188 18.523 6.188C17.971 6.188 17.479 6.308 17.047 6.548C16.627 6.788 16.291 7.136 16.039 7.592C15.787 8.036 15.661 8.57 15.661 9.194C15.661 9.806 15.787 10.34 16.039 10.796C16.291 11.252 16.627 11.6 17.047 11.84C17.479 12.08 17.965 12.2 18.505 12.2ZM37.9185 4.28C38.6865 4.28 39.3645 4.43 39.9525 4.73C40.5525 5.03 41.0205 5.492 41.3565 6.116C41.6925 6.728 41.8605 7.52 41.8605 8.492V14H39.6105V8.78C39.6105 7.928 39.4245 7.292 39.0525 6.872C38.6805 6.452 38.1465 6.242 37.4505 6.242C36.9585 6.242 36.5205 6.35 36.1365 6.566C35.7645 6.782 35.4705 7.1 35.2545 7.52C35.0505 7.94 34.9485 8.474 34.9485 9.122V14H32.6985V8.78C32.6985 7.928 32.5125 7.292 32.1405 6.872C31.7685 6.452 31.2345 6.242 30.5385 6.242C30.0465 6.242 29.6085 6.35 29.2245 6.566C28.8525 6.782 28.5585 7.1 28.3425 7.52C28.1385 7.94 28.0365 8.474 28.0365 9.122V14H25.7865V4.388H27.9285V6.944L27.5505 6.188C27.8745 5.564 28.3425 5.09 28.9545 4.766C29.5785 4.442 30.2865 4.28 31.0785 4.28C31.9785 4.28 32.7585 4.502 33.4185 4.946C34.0905 5.39 34.5345 6.062 34.7505 6.962L33.8685 6.656C34.1805 5.936 34.6965 5.36 35.4165 4.928C36.1365 4.496 36.9705 4.28 37.9185 4.28ZM50.0638 14.126C49.2838 14.126 48.5698 13.946 47.9218 13.586C47.2858 13.226 46.7758 12.686 46.3918 11.966C46.0198 11.234 45.8338 10.31 45.8338 9.194C45.8338 8.066 46.0138 7.142 46.3738 6.422C46.7458 5.702 47.2498 5.168 47.8858 4.82C48.5218 4.46 49.2478 4.28 50.0638 4.28C51.0118 4.28 51.8458 4.484 52.5658 4.892C53.2978 5.3 53.8738 5.87 54.2938 6.602C54.7258 7.334 54.9418 8.198 54.9418 9.194C54.9418 10.19 54.7258 11.06 54.2938 11.804C53.8738 12.536 53.2978 13.106 52.5658 13.514C51.8458 13.922 51.0118 14.126 50.0638 14.126ZM44.7358 17.492V4.388H46.8778V6.656L46.8058 9.212L46.9858 11.768V17.492H44.7358ZM49.8118 12.2C50.3518 12.2 50.8318 12.08 51.2518 11.84C51.6838 11.6 52.0258 11.252 52.2778 10.796C52.5298 10.34 52.6558 9.806 52.6558 9.194C52.6558 8.57 52.5298 8.036 52.2778 7.592C52.0258 7.136 51.6838 6.788 51.2518 6.548C50.8318 6.308 50.3518 6.188 49.8118 6.188C49.2718 6.188 48.7858 6.308 48.3538 6.548C47.9218 6.788 47.5798 7.136 47.3278 7.592C47.0758 8.036 46.9498 8.57 46.9498 9.194C46.9498 9.806 47.0758 10.34 47.3278 10.796C47.5798 11.252 47.9218 11.6 48.3538 11.84C48.7858 12.08 49.2718 12.2 49.8118 12.2ZM62.8746 14V12.056L62.7486 11.642V8.24C62.7486 7.58 62.5506 7.07 62.1546 6.71C61.7586 6.338 61.1586 6.152 60.3546 6.152C59.8146 6.152 59.2806 6.236 58.7526 6.404C58.2366 6.572 57.7986 6.806 57.4386 7.106L56.5566 5.468C57.0726 5.072 57.6846 4.778 58.3926 4.586C59.1126 4.382 59.8566 4.28 60.6246 4.28C62.0166 4.28 63.0906 4.616 63.8466 5.288C64.6146 5.948 64.9986 6.974 64.9986 8.366V14H62.8746ZM59.8506 14.126C59.1306 14.126 58.5006 14.006 57.9606 13.766C57.4206 13.514 57.0006 13.172 56.7006 12.74C56.4126 12.296 56.2686 11.798 56.2686 11.246C56.2686 10.706 56.3946 10.22 56.6466 9.788C56.9106 9.356 57.3366 9.014 57.9246 8.762C58.5126 8.51 59.2926 8.384 60.2646 8.384H63.0546V9.878H60.4266C59.6586 9.878 59.1426 10.004 58.8786 10.256C58.6146 10.496 58.4826 10.796 58.4826 11.156C58.4826 11.564 58.6446 11.888 58.9686 12.128C59.2926 12.368 59.7426 12.488 60.3186 12.488C60.8706 12.488 61.3626 12.362 61.7946 12.11C62.2386 11.858 62.5566 11.486 62.7486 10.994L63.1266 12.344C62.9106 12.908 62.5206 13.346 61.9566 13.658C61.4046 13.97 60.7026 14.126 59.8506 14.126ZM67.8862 14V4.388H70.0282V7.034L69.7762 6.26C70.0642 5.612 70.5142 5.12 71.1262 4.784C71.7502 4.448 72.5242 4.28 73.4482 4.28V6.422C73.3522 6.398 73.2622 6.386 73.1782 6.386C73.0942 6.374 73.0102 6.368 72.9262 6.368C72.0742 6.368 71.3962 6.62 70.8922 7.124C70.3882 7.616 70.1362 8.354 70.1362 9.338V14H67.8862ZM79.3264 14.126C78.2704 14.126 77.4544 13.856 76.8784 13.316C76.3024 12.764 76.0144 11.954 76.0144 10.886V2.264H78.2644V10.832C78.2644 11.288 78.3784 11.642 78.6064 11.894C78.8464 12.146 79.1764 12.272 79.5964 12.272C80.1004 12.272 80.5204 12.14 80.8564 11.876L81.4864 13.478C81.2224 13.694 80.8984 13.856 80.5144 13.964C80.1304 14.072 79.7344 14.126 79.3264 14.126ZM74.4304 6.26V4.46H80.8384V6.26H74.4304ZM83.3373 14V4.388H85.5873V14H83.3373ZM84.4713 2.804C84.0513 2.804 83.7033 2.672 83.4273 2.408C83.1633 2.144 83.0313 1.826 83.0313 1.454C83.0313 1.07 83.1633 0.751999 83.4273 0.499999C83.7033 0.235999 84.0513 0.104 84.4713 0.104C84.8913 0.104 85.2333 0.23 85.4973 0.481999C85.7733 0.722 85.9113 1.028 85.9113 1.4C85.9113 1.796 85.7793 2.132 85.5153 2.408C85.2513 2.672 84.9033 2.804 84.4713 2.804ZM88.5405 14V4.388H90.6825V7.034L90.4305 6.26C90.7185 5.612 91.1685 5.12 91.7805 4.784C92.4045 4.448 93.1785 4.28 94.1025 4.28V6.422C94.0065 6.398 93.9165 6.386 93.8325 6.386C93.7485 6.374 93.6645 6.368 93.5805 6.368C92.7285 6.368 92.0505 6.62 91.5465 7.124C91.0425 7.616 90.7905 8.354 90.7905 9.338V14H88.5405Z" fill="white"/>
</svg>
