<svg width="21" height="14" viewBox="0 0 21 14" fill="none" xmlns="http://www.w3.org/2000/svg">
<path d="M10.5 4.375C9.80381 4.375 9.13613 4.65156 8.64384 5.14384C8.15156 5.63613 7.875 6.30381 7.875 7C7.875 7.69619 8.15156 8.36387 8.64384 8.85616C9.13613 9.34844 9.80381 9.625 10.5 9.625C11.1962 9.625 11.8639 9.34844 12.3562 8.85616C12.8484 8.36387 13.125 7.69619 13.125 7C13.125 6.30381 12.8484 5.63613 12.3562 5.14384C11.8639 4.65156 11.1962 4.375 10.5 4.375ZM10.5 11.375C9.33968 11.375 8.22688 10.9141 7.40641 10.0936C6.58594 9.27312 6.125 8.16032 6.125 7C6.125 5.83968 6.58594 4.72688 7.40641 3.90641C8.22688 3.08594 9.33968 2.625 10.5 2.625C11.6603 2.625 12.7731 3.08594 13.5936 3.90641C14.4141 4.72688 14.875 5.83968 14.875 7C14.875 8.16032 14.4141 9.27312 13.5936 10.0936C12.7731 10.9141 11.6603 11.375 10.5 11.375ZM10.5 0.4375C6.125 0.4375 2.38875 3.15875 0.875 7C2.38875 10.8412 6.125 13.5625 10.5 13.5625C14.875 13.5625 18.6112 10.8412 20.125 7C18.6112 3.15875 14.875 0.4375 10.5 0.4375Z" fill="#6D717F"/>
</svg>
