<svg width="28" height="28" viewBox="0 0 28 28" fill="none" xmlns="http://www.w3.org/2000/svg">
<path d="M22.3696 1.16675H5.63027C5.03835 1.16675 4.47068 1.40189 4.05213 1.82044C3.63358 2.23899 3.39844 2.80666 3.39844 3.39858V24.6016C3.39844 25.1935 3.63358 25.7612 4.05213 26.1797C4.47068 26.5983 5.03835 26.8334 5.63027 26.8334H22.3696C22.9615 26.8334 23.5292 26.5983 23.9477 26.1797C24.3663 25.7612 24.6014 25.1935 24.6014 24.6016V3.39858C24.6014 2.80666 24.3663 2.23899 23.9477 1.82044C23.5292 1.40189 22.9615 1.16675 22.3696 1.16675Z" fill="#E3E3E3"/>
<path d="M22.3696 1.16675H5.63027C5.03901 1.1689 4.47259 1.40473 4.0545 1.82281C3.63642 2.2409 3.40059 2.80732 3.39844 3.39858V24.6016L24.6014 3.39858C24.5993 2.80732 24.3635 2.2409 23.9454 1.82281C23.5273 1.40473 22.9609 1.1689 22.3696 1.16675Z" fill="white"/>
<path d="M22.3696 1.16675H5.63027C5.03835 1.16675 4.47068 1.40189 4.05213 1.82044C3.63358 2.23899 3.39844 2.80666 3.39844 3.39858V24.6016C3.39844 25.1935 3.63358 25.7612 4.05213 26.1797C4.47068 26.5983 5.03835 26.8334 5.63027 26.8334H22.3696C22.9615 26.8334 23.5292 26.5983 23.9477 26.1797C24.3663 25.7612 24.6014 25.1935 24.6014 24.6016V3.39858C24.6014 2.80666 24.3663 2.23899 23.9477 1.82044C23.5292 1.40189 22.9615 1.16675 22.3696 1.16675Z" stroke="#191919" stroke-width="1.41667" stroke-linecap="round" stroke-linejoin="round"/>
<path d="M14 12.6865C13.349 9.76985 10.094 10.044 10.094 13.1275C10.094 15.9882 14 18.7987 14 18.7987C14 18.7987 17.906 15.9858 17.906 13.1252C17.906 10.0452 14.651 9.76985 14 12.6865ZM6.18799 4.49185C6.18799 3.56668 6.93815 3.39868 7.86215 3.39868C8.78615 3.39868 9.53632 3.56668 9.53632 4.49185C9.53632 5.41701 7.86215 6.74701 7.86215 6.74701C7.86215 6.74701 6.18799 5.41701 6.18799 4.49185ZM18.4637 22.3477C18.4637 21.4225 19.2138 21.2533 20.1378 21.2533C21.0618 21.2533 21.812 21.4225 21.812 22.3477C21.812 23.2728 20.1378 24.6017 20.1378 24.6017C20.1378 24.6017 18.4637 23.2717 18.4637 22.3477Z" fill="#FF808C" stroke="#191919" stroke-width="1.41667" stroke-linecap="round" stroke-linejoin="round"/>
</svg>
