<svg width="28" height="28" viewBox="0 0 28 28" fill="none" xmlns="http://www.w3.org/2000/svg">
<path d="M10 15C11.5913 15 13.1174 14.3679 14.2426 13.2426C15.3679 12.1174 16 10.5913 16 9C16 7.4087 15.3679 5.88258 14.2426 4.75736C13.1174 3.63214 11.5913 3 10 3C8.4087 3 6.88258 3.63214 5.75736 4.75736C4.63214 5.88258 4 7.4087 4 9C4 10.5913 4.63214 12.1174 5.75736 13.2426C6.88258 14.3679 8.4087 15 10 15ZM0 27C0 24.3478 1.05357 21.8043 2.92893 19.9289C4.8043 18.0536 7.34784 17 10 17C12.6522 17 15.1957 18.0536 17.0711 19.9289C18.9464 21.8043 20 24.3478 20 27C20 27.2652 19.8946 27.5196 19.7071 27.7071C19.5196 27.8946 19.2652 28 19 28H1C0.734784 28 0.48043 27.8946 0.292893 27.7071C0.105357 27.5196 0 27.2652 0 27Z" fill="#8FBFFA"/>
<path fill-rule="evenodd" clip-rule="evenodd" d="M22.3562 28H27.0002C27.2654 28 27.5197 27.8946 27.7073 27.7071C27.8948 27.5195 28.0002 27.2652 28.0002 27C28.0001 25.646 27.7251 24.3062 27.1919 23.0617C26.6586 21.8172 25.8782 20.6939 24.8979 19.76C23.9176 18.8261 22.7579 18.101 21.489 17.6286C20.2201 17.1562 18.8685 16.9464 17.5162 17.012C19.0652 18.1757 20.322 19.6841 21.1871 21.4177C22.0522 23.1513 22.5017 25.0625 22.5002 27C22.5002 27.3493 22.4522 27.6826 22.3562 28ZM16.2642 14.746C17.1603 15.0159 18.1072 15.0725 19.0291 14.9111C19.951 14.7498 20.8224 14.375 21.5736 13.8168C22.3248 13.2585 22.935 12.5323 23.3554 11.6961C23.7758 10.8599 23.9948 9.93691 23.9948 9.00098C23.9948 8.06505 23.7758 7.1421 23.3554 6.3059C22.935 5.4697 22.3248 4.74345 21.5736 4.18519C20.8224 3.62693 19.951 3.25215 19.0291 3.09081C18.1072 2.92946 17.1603 2.98602 16.2642 3.25598C17.7036 4.82239 18.5017 6.87262 18.5002 8.99998C18.5022 11.128 17.7041 13.1791 16.2642 14.746Z" fill="#2859C5"/>
</svg>
