<svg width="28" height="28" viewBox="0 0 28 28" fill="none" xmlns="http://www.w3.org/2000/svg">
<path d="M17.8032 18.4578L19.5276 7.64397C19.5403 7.56511 19.5697 7.48989 19.6139 7.42335C19.6581 7.35681 19.716 7.30049 19.7837 7.25817C19.8514 7.21585 19.9274 7.18851 20.0066 7.17798C20.0858 7.16745 20.1663 7.17398 20.2427 7.19713C22.4372 7.86213 24.2327 8.24363 26.4377 8.91563C26.5084 8.93742 26.574 8.97299 26.6308 9.02028C26.6877 9.06757 26.7346 9.12565 26.7689 9.19116C26.8031 9.25667 26.8241 9.32832 26.8305 9.40198C26.837 9.47563 26.8288 9.54983 26.8064 9.6203L23.9294 18.6841C22.3917 21.1388 20.1716 20.1716 17.8032 18.4578Z" fill="#FFEF5E"/>
<path d="M26.7702 9.18877C26.7354 9.12281 26.6877 9.06448 26.63 9.01719C26.5723 8.96991 26.5057 8.93464 26.4342 8.91343C24.2304 8.2426 22.4349 7.85993 20.2392 7.19493C20.1628 7.17179 20.0823 7.16526 20.0031 7.17578C19.9239 7.18631 19.8479 7.21366 19.7802 7.25598C19.7124 7.2983 19.6545 7.35462 19.6104 7.42116C19.5662 7.4877 19.5367 7.56292 19.524 7.64177L19.0889 10.3683L25.9139 12.4099L26.8017 9.6181C26.825 9.548 26.8343 9.47397 26.8289 9.40029C26.8234 9.3266 26.8035 9.25471 26.7702 9.18877Z" fill="#FFBC44"/>
<path d="M18.0623 16.8188C18.0623 16.8188 12.2814 16.5819 9.75095 17.3181C9.33177 17.441 8.94911 17.6648 8.63649 17.9699C8.32387 18.275 8.09083 18.652 7.95778 19.0681V19.0844C7.83796 19.4616 7.87277 19.8709 8.05456 20.2225C8.23634 20.574 8.55023 20.839 8.92728 20.9593L21.9076 25.0799L23.9399 18.6819L23.2376 19.0448C21.8318 19.7739 19.6991 19.0961 18.4391 17.5211C18.3003 17.2943 18.1744 17.0599 18.0623 16.8188Z" fill="#FF808C"/>
<path d="M14.9283 18.7833C17.7442 19.2882 20.4834 20.1532 23.0786 21.357L23.928 18.6841L23.2256 19.047C21.8198 19.7761 19.6871 19.0983 18.426 17.5233C18.2915 17.2962 18.17 17.0618 18.062 16.821C18.062 16.821 12.2811 16.5841 9.75062 17.3203C9.33157 17.4431 8.949 17.6667 8.63639 17.9716C8.32379 18.2764 8.09067 18.6533 7.95746 19.0691V19.0843C7.85129 19.4203 7.86529 19.782 8.00062 20.1063C10.1313 18.999 12.5395 18.5391 14.9283 18.7833Z" fill="#FFBFC5"/>
<path d="M19.4249 25.4684L19.7633 24.4033M16.2224 24.4534L16.5608 23.3871M9.82678 22.4199L10.1651 21.3536M13.0258 23.4361L13.3641 22.3698M18.0623 16.8188C18.0623 16.8188 12.2814 16.5819 9.75095 17.3181C9.33177 17.441 8.94911 17.6648 8.63649 17.9699C8.32387 18.275 8.09083 18.652 7.95778 19.0681V19.0844C7.83796 19.4616 7.87277 19.8709 8.05456 20.2225C8.23634 20.574 8.55023 20.839 8.92728 20.9593L21.9076 25.0799L23.9399 18.6819L23.2376 19.0448C21.8318 19.7739 19.6991 19.0961 18.4391 17.5211C18.3003 17.2943 18.1744 17.0599 18.0623 16.8188Z" stroke="#191919" stroke-width="1.41667" stroke-linecap="round" stroke-linejoin="round"/>
<path d="M18.062 16.8186L19.5273 7.64274C19.5401 7.56389 19.5695 7.48867 19.6137 7.42213C19.6578 7.35559 19.7157 7.29927 19.7835 7.25695C19.8512 7.21463 19.9272 7.18729 20.0064 7.17676C20.0856 7.16623 20.1661 7.17276 20.2425 7.19591C22.437 7.86091 24.2325 8.24241 26.4375 8.91441C26.5083 8.93608 26.574 8.97156 26.631 9.0188C26.688 9.06604 26.735 9.1241 26.7694 9.18962C26.8038 9.25514 26.8248 9.32684 26.8313 9.40055C26.8379 9.47426 26.8297 9.54854 26.8073 9.61908L23.928 18.6829M19.0922 10.3704L25.9207 12.4121" stroke="#191919" stroke-width="1.41667" stroke-linecap="round" stroke-linejoin="round"/>
<path d="M7.32067 14.8401C8.95286 14.8401 10.5182 14.1917 11.6723 13.0376C12.8265 11.8834 13.4748 10.3181 13.4748 8.6859C13.4748 7.05372 12.8265 5.48838 11.6723 4.33425C10.5182 3.18012 8.95286 2.53174 7.32067 2.53174C5.68848 2.53174 4.12315 3.18012 2.96902 4.33425C1.81489 5.48838 1.1665 7.05372 1.1665 8.6859C1.1665 10.3181 1.81489 11.8834 2.96902 13.0376C4.12315 14.1917 5.68848 14.8401 7.32067 14.8401Z" fill="white" stroke="#191919" stroke-width="1.41667" stroke-linecap="round" stroke-linejoin="round"/>
<path d="M7.32062 4.20947L4.52295 6.44714L5.64178 9.80364H8.99828L10.1183 6.44714L7.32062 4.20947Z" fill="#808080" stroke="#191919" stroke-width="1.41667" stroke-linecap="round" stroke-linejoin="round"/>
<path d="M5.64312 9.80352L3.74962 13.5894M8.99962 9.80352L10.9316 13.6687M4.52312 6.44702H1.58545M7.32078 4.20935V2.53052M10.1184 6.44702H13.0549M13.8016 16.8362L15.0429 22.9029M16.3998 16.7837L17.8044 23.6507M11.2699 17.0217L12.2044 22.001" stroke="#191919" stroke-width="1.41667" stroke-linecap="round" stroke-linejoin="round"/>
</svg>
