<svg width="25" height="25" viewBox="0 0 25 25" fill="none" xmlns="http://www.w3.org/2000/svg">
<path fill-rule="evenodd" clip-rule="evenodd" d="M19.1249 11.2499C19.1249 12.2841 18.9212 13.3081 18.5255 14.2636C18.1297 15.219 17.5497 16.0871 16.8184 16.8184C16.0871 17.5497 15.219 18.1297 14.2636 18.5255C13.3081 18.9212 12.2841 19.1249 11.2499 19.1249C10.2158 19.1249 9.19175 18.9212 8.23631 18.5255C7.28087 18.1297 6.41274 17.5497 5.68148 16.8184C4.95021 16.0871 4.37015 15.219 3.97439 14.2636C3.57864 13.3081 3.37494 12.2841 3.37494 11.2499C3.37494 9.16136 4.20463 7.15833 5.68148 5.68148C7.15833 4.20463 9.16136 3.37494 11.2499 3.37494C13.3385 3.37494 15.3416 4.20463 16.8184 5.68148C18.2953 7.15833 19.1249 9.16136 19.1249 11.2499ZM17.6899 19.5449C15.5801 21.1829 12.9253 21.9552 10.2661 21.7047C7.60685 21.4541 5.14305 20.1996 3.37625 18.1964C1.60946 16.1932 0.672506 13.592 0.756129 10.9223C0.839751 8.25255 1.93766 5.71506 3.82636 3.82636C5.71506 1.93766 8.25255 0.839751 10.9223 0.756129C13.592 0.672506 16.1932 1.60946 18.1964 3.37625C20.1996 5.14305 21.4541 7.60685 21.7047 10.2661C21.9552 12.9253 21.1829 15.5801 19.5449 17.6899L24.4274 22.5724C24.5564 22.6926 24.6598 22.8375 24.7316 22.9985C24.8033 23.1595 24.8419 23.3333 24.845 23.5095C24.8481 23.6858 24.8157 23.8608 24.7497 24.0242C24.6836 24.1877 24.5854 24.3361 24.4608 24.4608C24.3361 24.5854 24.1877 24.6836 24.0242 24.7497C23.8608 24.8157 23.6858 24.8481 23.5095 24.845C23.3333 24.8419 23.1595 24.8033 22.9985 24.7316C22.8375 24.6598 22.6926 24.5564 22.5724 24.4274L17.6899 19.5449Z" fill="#131927"/>
</svg>
