<svg width="60" height="130" viewBox="0 0 60 130" fill="none" xmlns="http://www.w3.org/2000/svg">
<g opacity="0.9">
<rect x="60" y="130" width="60" height="130" transform="rotate(180 60 130)" fill="#131927"/>
<path fill-rule="evenodd" clip-rule="evenodd" d="M19.85 67.6502C19.1478 66.9471 18.7533 65.994 18.7533 65.0002C18.7533 64.0065 19.1478 63.0534 19.85 62.3502L33.99 48.2052C34.6935 47.5021 35.6475 47.1072 36.6422 47.1074C37.6368 47.1076 38.5906 47.503 39.2938 48.2065C39.9969 48.91 40.3918 49.864 40.3916 50.8586C40.3914 51.8533 39.996 52.8071 39.2925 53.5102L27.8025 65.0002L39.2925 76.4902C39.976 77.1972 40.3544 78.1442 40.3463 79.1275C40.3382 80.1107 39.9443 81.0515 39.2493 81.7471C38.5544 82.4427 37.614 82.8375 36.6308 82.8465C35.6476 82.8555 34.7001 82.478 33.9925 81.7952L19.8475 67.6527L19.85 67.6502Z" fill="#F9FAFB"/>
</g>
</svg>
