<svg width="21" height="18" viewBox="0 0 21 18" fill="none" xmlns="http://www.w3.org/2000/svg">
<path d="M10.3512 5.875L13.125 8.64V8.5C13.125 7.80381 12.8484 7.13613 12.3562 6.64384C11.8639 6.15156 11.1962 5.875 10.5 5.875H10.3512ZM6.58875 6.575L7.945 7.93125C7.90125 8.115 7.875 8.29875 7.875 8.5C7.875 9.19619 8.15156 9.86387 8.64384 10.3562C9.13613 10.8484 9.80381 11.125 10.5 11.125C10.6925 11.125 10.885 11.0988 11.0687 11.055L12.425 12.4112C11.8387 12.7 11.1912 12.875 10.5 12.875C9.33968 12.875 8.22688 12.4141 7.40641 11.5936C6.58594 10.7731 6.125 9.66032 6.125 8.5C6.125 7.80875 6.3 7.16125 6.58875 6.575ZM1.75 1.73625L3.745 3.73125L4.13875 4.125C2.695 5.2625 1.5575 6.75 0.875 8.5C2.38875 12.3412 6.125 15.0625 10.5 15.0625C11.8562 15.0625 13.1512 14.8 14.3325 14.3275L14.7087 14.695L17.2638 17.25L18.375 16.1388L2.86125 0.625M10.5 4.125C11.6603 4.125 12.7731 4.58594 13.5936 5.40641C14.4141 6.22688 14.875 7.33968 14.875 8.5C14.875 9.06 14.7612 9.6025 14.56 10.0925L17.1237 12.6562C18.4362 11.5625 19.4862 10.1275 20.125 8.5C18.6112 4.65875 14.875 1.9375 10.5 1.9375C9.275 1.9375 8.1025 2.15625 7 2.55L8.89875 4.43125C9.3975 4.23875 9.93125 4.125 10.5 4.125Z" fill="#6D717F"/>
</svg>
