<svg width="25" height="25" viewBox="0 0 25 25" fill="none" xmlns="http://www.w3.org/2000/svg">
<path d="M8.5843 0.685288C6.00529 1.56203 3.78116 3.22611 2.2386 5.43311C0.696029 7.64011 -0.0836646 10.2737 0.0140392 12.947C0.111743 15.6204 1.08169 18.1925 2.78142 20.2857C4.48115 22.3789 6.82106 23.8828 9.45746 24.5765C11.5949 25.117 13.8342 25.1407 15.983 24.6457C17.9296 24.2172 19.7293 23.3007 21.2059 21.9858C22.7427 20.5756 23.8581 18.7815 24.4324 16.7966C25.0565 14.638 25.1676 12.368 24.757 10.1608H12.7545V15.0398H19.7056C19.5667 15.818 19.269 16.5607 18.8303 17.2235C18.3916 17.8863 17.821 18.4555 17.1526 18.8972C16.3038 19.4474 15.347 19.8176 14.3436 19.984C13.3372 20.1674 12.3049 20.1674 11.2986 19.984C10.2786 19.7774 9.31368 19.3648 8.46532 18.7727C7.10243 17.8273 6.07909 16.4842 5.54132 14.9351C4.99446 13.3569 4.99446 11.646 5.54132 10.0679C5.92412 8.96169 6.55692 7.9545 7.39252 7.1215C8.34875 6.15072 9.55937 5.45681 10.8915 5.11589C12.2237 4.77497 13.626 4.80022 14.9445 5.18886C15.9745 5.49869 16.9164 6.04004 17.6951 6.76975C18.4788 6.00565 19.2613 5.23958 20.0423 4.47153C20.4457 4.05852 20.8853 3.66527 21.2825 3.24238C20.0939 2.15844 18.6987 1.31499 17.1768 0.76038C14.4055 -0.225722 11.3731 -0.252222 8.5843 0.685288Z" fill="white"/>
<path d="M8.58419 0.685272C11.3728 -0.252876 14.4051 -0.227073 17.1767 0.758388C18.6988 1.31677 20.0934 2.16427 21.2804 3.25225C20.8771 3.67514 20.4516 4.07036 20.0402 4.48139C19.2578 5.24681 18.476 6.00959 17.695 6.76973C16.9163 6.04003 15.9744 5.49868 14.9444 5.18884C13.6263 4.79884 12.2241 4.77213 10.8916 5.11166C9.55903 5.45118 8.34767 6.14382 7.39039 7.11358C6.5548 7.94658 5.92199 8.95377 5.5392 10.06L1.35889 6.8883C2.85518 3.98057 5.44593 1.75637 8.58419 0.685272Z" fill="#E33629"/>
<path d="M0.250047 10.0307C0.474733 8.93947 0.84776 7.88271 1.35915 6.88867L5.53946 10.0682C4.9926 11.6464 4.9926 13.3573 5.53946 14.9354C4.1467 15.9893 2.75326 17.0485 1.35915 18.113C0.0789436 15.6158 -0.311497 12.7706 0.250047 10.0307Z" fill="#F8BD00"/>
<path d="M12.7548 10.1587H24.7573C25.1679 12.3659 25.0568 14.6359 24.4327 16.7945C23.8584 18.7795 22.7429 20.5735 21.2062 21.9838C19.8571 20.9522 18.502 19.9286 17.1529 18.8971C17.8217 18.455 18.3926 17.8851 18.8313 17.2216C19.27 16.5581 19.5674 15.8146 19.7059 15.0357H12.7548C12.7528 13.4114 12.7548 11.785 12.7548 10.1587Z" fill="#587DBD"/>
<path d="M1.35693 18.1127C2.75104 17.0587 4.14448 15.9995 5.53725 14.9351C6.07608 16.4847 7.10089 17.8279 8.46528 18.7727C9.31628 19.3621 10.2833 19.7713 11.3046 19.9742C12.311 20.1575 13.3432 20.1575 14.3496 19.9742C15.353 19.8077 16.3098 19.4375 17.1586 18.8873C18.5077 19.9188 19.8628 20.9425 21.2119 21.974C19.7356 23.2895 17.9359 24.2068 15.989 24.6358C13.8402 25.1308 11.6009 25.1071 9.46347 24.5666C7.773 24.1243 6.19399 23.3446 4.8254 22.2763C3.37684 21.1493 2.19371 19.7291 1.35693 18.1127Z" fill="#319F43"/>
</svg>
