<svg width="57" height="57" viewBox="0 0 57 57" fill="none" xmlns="http://www.w3.org/2000/svg">
<g clip-path="url(#clip0_66_925)">
<path d="M54.2747 8.14031H51.5672V5.43281H48.8419V2.7075H46.1344V0H5.415V10.8656H8.14031V13.5731H10.8478V10.8656H43.4269V13.5731H46.1344V40.7194H43.4269V43.4269H40.7016V46.1344H5.415V43.4269H2.7075V46.1344H0V57H2.7075V48.8597H37.9941V57H57V10.8656H54.2747V8.14031ZM10.8478 8.14031H8.14031V2.7075H10.8478V8.14031ZM16.2806 8.14031H13.5553V2.7075H16.2806V8.14031ZM40.7016 8.14031H18.9881V2.7075H40.7016V8.14031ZM54.2747 27.1462H51.5672V13.5731H48.8419V10.8656H46.1344V8.14031H43.4269V5.43281H46.1344V8.14031H48.8419V10.8656H51.5672V13.5731H54.2747V27.1462Z" fill="#D2D5DB"/>
<path d="M35.2689 27.1462H37.9942V29.8537H35.2689V27.1462ZM29.8539 40.7193H37.9942V43.4268H29.8539V40.7193ZM32.5614 21.7134H35.2689V24.4209H32.5614V21.7134ZM35.2689 56.9999V51.5671H27.1286V56.9999H29.8539V54.2924H32.5614V56.9999H35.2689ZM24.4211 29.8537H35.2689V32.579H24.4211V29.8537ZM24.4211 21.7134H27.1286V24.4209H24.4211V21.7134ZM21.7136 27.1462H24.4211V29.8537H21.7136V27.1462ZM18.9883 40.7193H21.7136V43.4268H18.9883V40.7193Z" fill="#D2D5DB"/>
<path d="M43.4269 37.9941V16.2806H16.2807V37.9941H43.4269ZM18.9882 19.0059H40.7016V35.2866H18.9882V19.0059ZM13.5554 40.7194H16.2807V43.4269H13.5554V40.7194ZM10.8479 13.5731H13.5554V37.9941H10.8479V13.5731ZM8.14035 37.9941H10.8479V40.7194H8.14035V37.9941ZM5.41504 40.7194H8.14035V43.4269H5.41504V40.7194Z" fill="#D2D5DB"/>
</g>
<defs>
<clipPath id="clip0_66_925">
<rect width="57" height="57" fill="white"/>
</clipPath>
</defs>
</svg>
