<svg width="95" height="98" viewBox="0 0 95 98" fill="none" xmlns="http://www.w3.org/2000/svg">
<g filter="url(#filter0_d_66_2785)">
<path d="M53.375 5.25H40.375C33.9127 5.25753 27.7172 7.82802 23.1476 12.3976C18.578 16.9672 16.0075 23.1627 16 29.625V68.625C16.0075 75.0873 18.578 81.2828 23.1476 85.8524C27.7172 90.422 33.9127 92.9925 40.375 93H53.375C59.8373 92.9925 66.0328 90.422 70.6024 85.8524C75.172 81.2828 77.7425 75.0873 77.75 68.625V29.625C77.7425 23.1627 75.172 16.9672 70.6024 12.3976C66.0328 7.82802 59.8373 5.25753 53.375 5.25ZM74.5 29.625V41H48.5V8.5H53.375C58.9757 8.50645 64.3452 10.7342 68.3055 14.6945C72.2658 18.6548 74.4935 24.0243 74.5 29.625ZM40.375 8.5H45.25V41H19.25V29.625C19.2565 24.0243 21.4842 18.6548 25.4445 14.6945C29.4048 10.7342 34.7743 8.50645 40.375 8.5ZM53.375 89.75H40.375C34.7743 89.7435 29.4048 87.5158 25.4445 83.5555C21.4842 79.5952 19.2565 74.2257 19.25 68.625V44.25H74.5V68.625C74.4935 74.2257 72.2658 79.5952 68.3055 83.5555C64.3452 87.5158 58.9757 89.7435 53.375 89.75Z" fill="#FF007F"/>
<path fill-rule="evenodd" clip-rule="evenodd" d="M89.071 52.071L83.414 57.728L82 56.314L86.95 51.364L82 46.414L83.414 45L89.071 50.657C89.2585 50.8445 89.3638 51.0988 89.3638 51.364C89.3638 51.6292 89.2585 51.8835 89.071 52.071Z" fill="#FF007F"/>
<path fill-rule="evenodd" clip-rule="evenodd" d="M5.29277 50.657L10.9498 45L12.3638 46.414L7.41377 51.364L12.3638 56.314L10.9498 57.728L5.29277 52.071C5.1053 51.8835 4.99998 51.6292 4.99998 51.364C4.99998 51.0989 5.1053 50.8446 5.29277 50.657Z" fill="#FF007F"/>
</g>
<defs>
<filter id="filter0_d_66_2785" x="0" y="0.25" width="94.3638" height="97.75" filterUnits="userSpaceOnUse" color-interpolation-filters="sRGB">
<feFlood flood-opacity="0" result="BackgroundImageFix"/>
<feColorMatrix in="SourceAlpha" type="matrix" values="0 0 0 0 0 0 0 0 0 0 0 0 0 0 0 0 0 0 127 0" result="hardAlpha"/>
<feOffset/>
<feGaussianBlur stdDeviation="2.5"/>
<feColorMatrix type="matrix" values="0 0 0 0 1 0 0 0 0 0 0 0 0 0 0.498039 0 0 0 1 0"/>
<feBlend mode="normal" in2="BackgroundImageFix" result="effect1_dropShadow_66_2785"/>
<feBlend mode="normal" in="SourceGraphic" in2="effect1_dropShadow_66_2785" result="shape"/>
</filter>
</defs>
</svg>
