<svg width="72" height="99" viewBox="0 0 72 99" fill="none" xmlns="http://www.w3.org/2000/svg">
<g filter="url(#filter0_d_66_2695)">
<path d="M42.375 5.75H29.375C22.9127 5.75753 16.7172 8.32802 12.1476 12.8976C7.57802 17.4672 5.00753 23.6627 5 30.125V69.125C5.00753 75.5873 7.57802 81.7828 12.1476 86.3524C16.7172 90.922 22.9127 93.4925 29.375 93.5H42.375C48.8373 93.4925 55.0328 90.922 59.6024 86.3524C64.172 81.7828 66.7425 75.5873 66.75 69.125V30.125C66.7425 23.6627 64.172 17.4672 59.6024 12.8976C55.0328 8.32802 48.8373 5.75753 42.375 5.75ZM63.5 30.125V41.5H37.5V9H42.375C47.9757 9.00645 53.3452 11.2342 57.3055 15.1945C61.2658 19.1548 63.4935 24.5243 63.5 30.125ZM29.375 9H34.25V41.5H8.25V30.125C8.25645 24.5243 10.4842 19.1548 14.4445 15.1945C18.4048 11.2342 23.7743 9.00645 29.375 9ZM42.375 90.25H29.375C23.7743 90.2435 18.4048 88.0158 14.4445 84.0555C10.4842 80.0952 8.25645 74.7257 8.25 69.125V44.75H63.5V69.125C63.4935 74.7257 61.2658 80.0952 57.3055 84.0555C53.3452 88.0158 47.9757 90.2435 42.375 90.25Z" fill="#FF007F"/>
<g filter="url(#filter1_d_66_2695)">
<circle cx="50.5" cy="27.5" r="5.75" stroke="#FF007F" stroke-width="1.5"/>
</g>
</g>
<defs>
<filter id="filter0_d_66_2695" x="0" y="0.75" width="71.75" height="97.75" filterUnits="userSpaceOnUse" color-interpolation-filters="sRGB">
<feFlood flood-opacity="0" result="BackgroundImageFix"/>
<feColorMatrix in="SourceAlpha" type="matrix" values="0 0 0 0 0 0 0 0 0 0 0 0 0 0 0 0 0 0 127 0" result="hardAlpha"/>
<feOffset/>
<feGaussianBlur stdDeviation="2.5"/>
<feColorMatrix type="matrix" values="0 0 0 0 1 0 0 0 0 0 0 0 0 0 0.498039 0 0 0 1 0"/>
<feBlend mode="normal" in2="BackgroundImageFix" result="effect1_dropShadow_66_2695"/>
<feBlend mode="normal" in="SourceGraphic" in2="effect1_dropShadow_66_2695" result="shape"/>
</filter>
<filter id="filter1_d_66_2695" x="39" y="16" width="23" height="23" filterUnits="userSpaceOnUse" color-interpolation-filters="sRGB">
<feFlood flood-opacity="0" result="BackgroundImageFix"/>
<feColorMatrix in="SourceAlpha" type="matrix" values="0 0 0 0 0 0 0 0 0 0 0 0 0 0 0 0 0 0 127 0" result="hardAlpha"/>
<feOffset/>
<feGaussianBlur stdDeviation="2.5"/>
<feColorMatrix type="matrix" values="0 0 0 0 1 0 0 0 0 0 0 0 0 0 0.498039 0 0 0 1 0"/>
<feBlend mode="normal" in2="BackgroundImageFix" result="effect1_dropShadow_66_2695"/>
<feBlend mode="normal" in="SourceGraphic" in2="effect1_dropShadow_66_2695" result="shape"/>
</filter>
</defs>
</svg>
