<svg width="28" height="28" viewBox="0 0 28 28" fill="none" xmlns="http://www.w3.org/2000/svg">
<path d="M8.962 17.7013C7.58388 17.4038 6.00013 17.7778 4.89763 18.7906C3.75138 19.8384 3.50638 21.3959 3.21325 22.8441C3.05138 23.6316 2.99013 24.7581 2.30544 25.2963C1.997 25.5391 1.71263 25.5522 1.35388 25.5347C1.21388 25.5281 0.562003 25.305 0.747941 25.7338C1.10013 26.5519 2.8545 27.0484 3.61357 27.2191C5.6545 27.6741 7.842 27.1184 9.46732 25.8169C9.63575 25.6791 9.79982 25.5347 9.95513 25.3838C11.2108 24.1653 12.1514 22.295 11.7926 20.5231C11.4689 18.9219 10.3117 17.9922 8.962 17.7013Z" fill="#855C52"/>
<mask id="mask0_63_2581" style="mask-type:luminance" maskUnits="userSpaceOnUse" x="0" y="17" width="12" height="11">
<path d="M8.962 17.7013C7.58388 17.4038 6.00013 17.7778 4.89763 18.7906C3.75138 19.8384 3.50638 21.3959 3.21325 22.8441C3.05138 23.6316 2.99013 24.7581 2.30544 25.2963C1.997 25.5391 1.71263 25.5522 1.35388 25.5347C1.21388 25.5281 0.562003 25.305 0.747941 25.7338C1.10013 26.5519 2.8545 27.0484 3.61357 27.2191C5.6545 27.6741 7.842 27.1184 9.46732 25.8169C9.63575 25.6791 9.79982 25.5347 9.95513 25.3838C11.2108 24.1653 12.1514 22.295 11.7926 20.5231C11.4689 18.9219 10.3117 17.9922 8.962 17.7013Z" fill="white"/>
</mask>
<g mask="url(#mask0_63_2581)">
<path d="M6.12462 21.4024C6.1443 21.4746 6.15524 21.5621 6.15087 21.6736C6.12243 22.3408 6.59493 22.5727 7.18774 22.6777C7.7893 22.7827 8.56149 22.7827 8.4193 23.5877C8.35587 23.9333 8.14587 24.1608 8.45649 24.4321C8.92243 24.8411 9.93305 24.9418 10.4974 24.6989C10.8452 24.548 11.3177 24.4408 11.0181 24.9899C10.8452 25.3071 10.5652 25.5783 10.3443 25.8671C10.1015 26.1821 9.82368 26.4205 9.50211 26.6524C9.26586 26.8252 9.08649 27.0439 8.82399 27.1818C8.15462 27.5252 7.36274 27.5296 6.6343 27.6346C5.65868 27.7746 4.68305 28.1574 3.74462 27.7068C2.75149 27.2299 1.58993 27.1489 0.620865 26.6283C0.14399 26.3724 -0.11851 26.0071 0.0543028 25.4755C0.203053 25.0183 0.557428 24.9002 1.00149 24.8805C1.50243 24.8586 1.92024 24.7974 2.22868 24.3555C2.49337 23.9793 2.46493 23.3602 2.51305 22.9249C2.57649 22.3299 2.62243 21.6933 2.87399 21.1421C3.08399 20.6871 3.3093 20.2343 3.59368 19.8186C3.72712 19.6239 3.87368 19.3833 4.05962 19.2346C4.34837 19.0027 4.66337 18.9283 5.01118 18.8408C5.06805 19.1208 4.77711 19.4949 4.69399 19.753C4.5518 20.1949 4.47962 20.6827 4.90837 20.9474C5.3218 21.2011 5.9868 20.908 6.12462 21.4024Z" fill="#ED6C30"/>
</g>
<path d="M14.0151 12.2784C15.8854 10.7625 18.7423 7.44623 20.4813 5.77498C21.5488 4.75123 22.5594 3.64873 23.5723 2.58123C24.2132 1.90529 25.1801 0.689041 26.2519 0.899041C26.4379 0.936229 26.5932 1.04342 26.7244 1.17685C27.0154 1.47217 26.9126 2.03654 26.7419 2.37123C26.0594 3.70779 25.0029 4.91748 24.0885 6.1031C23.7385 6.5581 23.3885 7.00873 23.0232 7.45279C21.9601 8.75217 19.5298 11.4056 18.5235 12.7509C18.1319 13.2759 17.7557 13.8097 17.4013 14.3587C17.1804 14.6978 16.8851 14.969 16.721 15.3387C16.5548 15.715 15.8548 14.4484 15.8176 14.3522C15.6754 13.9781 15.5201 13.7681 15.1788 13.5822C14.9338 13.4509 13.571 13.0069 13.7613 12.5825C13.8094 12.4687 13.9035 12.3681 14.0151 12.2784Z" fill="#196CA2"/>
<path d="M16.555 14.9121C16.2903 14.35 15.9316 13.9146 15.5312 13.5625C15.4284 13.4706 15.3256 13.3831 15.2337 13.2912C14.6125 12.6809 14.0241 12.4556 13.4947 12.6043C12.7006 12.8275 12.4644 13.1753 11.9153 13.8468C11.7666 14.0306 11.6287 14.199 11.5041 14.3346C10.5022 15.4218 10.4672 15.3409 8.96437 16.0103L8.83749 16.0628C8.49843 16.205 8.03468 16.3997 7.91655 16.8787C7.86624 17.0843 7.87062 17.4037 8.17687 17.769C8.51155 18.1693 8.90749 18.4471 9.28811 18.7162C9.42593 18.8125 9.56155 18.9087 9.69499 19.0115C10.1303 19.3462 10.5087 19.7575 10.9091 20.1906L11.1453 20.4465C11.2087 20.5121 11.2656 20.5953 11.3312 20.6784C11.5106 20.9168 11.7316 21.2143 12.0597 21.3718C12.1734 21.4265 12.2719 21.4593 12.3681 21.4768C12.74 21.5425 12.9697 21.3456 13.09 21.2384L13.1403 21.1968C13.6237 20.7965 14.0022 20.0178 14.2166 19.4687C14.3522 19.1187 14.3412 19.0312 14.4353 18.8125C14.6869 18.2371 15.0894 17.804 15.3103 17.5C15.7478 16.8984 15.925 16.6731 16.0934 16.52C16.5922 16.0606 16.8437 15.5312 16.555 14.9121Z" fill="#C7E4EA"/>
<mask id="mask1_63_2581" style="mask-type:luminance" maskUnits="userSpaceOnUse" x="7" y="12" width="10" height="10">
<path d="M16.555 14.9121C16.2903 14.35 15.9316 13.9146 15.5312 13.5625C15.4284 13.4706 15.3256 13.3831 15.2337 13.2912C14.6125 12.6809 14.0241 12.4556 13.4947 12.6043C12.7006 12.8275 12.4644 13.1753 11.9153 13.8468C11.7666 14.0306 11.6287 14.199 11.5041 14.3346C10.5022 15.4218 10.4672 15.3409 8.96437 16.0103L8.83749 16.0628C8.49843 16.205 8.03468 16.3997 7.91655 16.8787C7.86624 17.0843 7.87062 17.4037 8.17687 17.769C8.51155 18.1693 8.90749 18.4471 9.28811 18.7162C9.42593 18.8125 9.56155 18.9087 9.69499 19.0115C10.1303 19.3462 10.5087 19.7575 10.9091 20.1906L11.1453 20.4465C11.2087 20.5121 11.2656 20.5953 11.3312 20.6784C11.5106 20.9168 11.7316 21.2143 12.0597 21.3718C12.1734 21.4265 12.2719 21.4593 12.3681 21.4768C12.74 21.5425 12.9697 21.3456 13.09 21.2384L13.1403 21.1968C13.6237 20.7965 14.0022 20.0178 14.2166 19.4687C14.3522 19.1187 14.3412 19.0312 14.4353 18.8125C14.6869 18.2371 15.0894 17.804 15.3103 17.5C15.7478 16.8984 15.925 16.6731 16.0934 16.52C16.5922 16.0606 16.8437 15.5312 16.555 14.9121Z" fill="white"/>
</mask>
<g mask="url(#mask1_63_2581)">
<path d="M13.9976 21.4726C13.8007 21.4376 13.6235 21.3085 13.5338 21.1116C13.4266 20.8688 13.3763 20.6413 13.3304 20.4357C13.2888 20.2519 13.256 20.0922 13.1838 19.9588C12.532 18.7251 11.6416 17.7932 10.1148 16.7432C9.65759 16.4282 9.22665 16.2357 8.84165 16.1679C8.76039 16.1539 8.6827 16.1239 8.61305 16.0798C8.5434 16.0357 8.48316 15.9782 8.43579 15.9107C8.38843 15.8432 8.35487 15.767 8.33705 15.6865C8.31923 15.606 8.3175 15.5228 8.33196 15.4416C8.39102 15.1004 8.71696 14.8729 9.0604 14.9319C9.62259 15.0304 10.2176 15.2929 10.8257 15.7085C12.0157 16.5266 13.361 17.6029 14.2973 19.3747C14.446 19.6591 14.5073 19.9304 14.5576 20.1688C14.5948 20.3329 14.6254 20.4751 14.6823 20.5997C14.8245 20.9147 14.6823 21.2866 14.3673 21.4288C14.2426 21.4813 14.1179 21.4944 13.9976 21.4726Z" fill="#78A3AD"/>
</g>
</svg>
