<svg width="28" height="28" viewBox="0 0 28 28" fill="none" xmlns="http://www.w3.org/2000/svg">
<g clip-path="url(#clip0_63_2094)">
<path d="M27.2825 14.0787C27.2825 6.78708 21.3704 0.875 14.0782 0.875C6.78592 0.875 0.875 6.7865 0.875 14.0787C0.875 18.1737 2.73933 21.833 5.66417 24.2544C6.4365 24.8937 7.54367 24.6336 8.06633 23.8321L8.48867 23.1846C9.02125 22.3679 8.76517 21.3167 8.08383 20.6996C7.15807 19.8632 6.41835 18.8416 5.91259 17.701C5.40683 16.5605 5.14631 15.3264 5.14792 14.0787C5.14792 9.14608 9.14608 5.14792 14.0788 5.14792C19.0114 5.14792 23.0102 9.14608 23.0102 14.0787C23.0102 16.492 22.0535 18.6812 20.4978 20.2889C19.9588 19.6865 19.3964 19.1054 18.8119 18.5471C18.4573 18.2111 18.0011 18.1189 17.6015 18.2531C17.2037 18.3872 16.8945 18.7355 16.8053 19.2127C16.4774 20.9772 16.3357 23.0102 16.2779 24.6715C16.2603 25.1593 16.4242 25.6363 16.738 26.0103C17.0518 26.3842 17.4931 26.6284 17.9766 26.6957C19.6146 26.9261 21.6277 27.139 23.415 27.1244C23.9062 27.1203 24.3063 26.8712 24.5082 26.4985C24.7106 26.1246 24.6989 25.6532 24.4265 25.242C24.05 24.6771 23.6547 24.1249 23.2412 23.5865C24.521 22.3561 25.5388 20.8795 26.2334 19.2456C26.9279 17.6117 27.2847 15.8541 27.2825 14.0787Z" fill="#8FBFFA"/>
<path fill-rule="evenodd" clip-rule="evenodd" d="M14 7.29175C14.3868 7.29175 14.7577 7.44539 15.0312 7.71888C15.3047 7.99237 15.4584 8.36331 15.4584 8.75008V14.0001C15.4584 14.1916 15.4207 14.3813 15.3474 14.5582C15.2742 14.7352 15.1668 14.896 15.0314 15.0314L11.5314 18.5314C11.2578 18.8049 10.8869 18.9586 10.5 18.9586C10.1132 18.9586 9.74222 18.8049 9.4687 18.5314C9.19517 18.2579 9.0415 17.8869 9.0415 17.5001C9.0415 17.3085 9.07923 17.1189 9.15253 16.9419C9.22583 16.765 9.33326 16.6042 9.4687 16.4687L12.5417 13.3963V8.75008C12.5417 8.36331 12.6953 7.99237 12.9688 7.71888C13.2423 7.44539 13.6133 7.29175 14 7.29175Z" fill="#2859C5"/>
</g>
<defs>
<clipPath id="clip0_63_2094">
<rect width="28" height="28" fill="white"/>
</clipPath>
</defs>
</svg>
