<svg width="28" height="28" viewBox="0 0 28 28" fill="none" xmlns="http://www.w3.org/2000/svg">
<path opacity="0.15" d="M5.23828 26.2732C5.23828 26.5764 6.16138 26.8673 7.80451 27.0817C9.44765 27.2961 11.6762 27.4165 13.9999 27.4165C16.3237 27.4165 18.5523 27.2961 20.1954 27.0817C21.8385 26.8673 22.7616 26.5764 22.7616 26.2732C22.7616 25.97 21.8385 25.6792 20.1954 25.4648C18.5523 25.2503 16.3237 25.1299 13.9999 25.1299C11.6762 25.1299 9.44765 25.2503 7.80451 25.4648C6.16138 25.6792 5.23828 25.97 5.23828 26.2732Z" fill="#45413C"/>
<path d="M14 12.1332V25.9582C14.4707 25.9576 14.9373 25.8706 15.3767 25.7016L24.3542 22.2016C24.7834 22.0348 25.1522 21.7423 25.4124 21.3624C25.6726 20.9825 25.8121 20.5329 25.8125 20.0724V9.12908C25.8113 8.62883 25.6452 8.14293 25.34 7.74658L14 12.1332ZM2.66 7.74658C2.35478 8.14293 2.18872 8.62883 2.1875 9.12908V20.0957C2.18794 20.5562 2.32739 21.0058 2.5876 21.3857C2.8478 21.7656 3.21664 22.0581 3.64583 22.2249L12.6233 25.7249C13.0642 25.886 13.5307 25.965 14 25.9582V12.1332L2.66 7.74658Z" fill="#DAEDF7"/>
<path d="M14 12.1332V25.9582C14.4707 25.9576 14.9373 25.8706 15.3767 25.7016L24.3542 22.2016C24.7834 22.0348 25.1522 21.7423 25.4124 21.3624C25.6726 20.9825 25.8121 20.5329 25.8125 20.0724V9.12908C25.8113 8.62883 25.6452 8.14293 25.34 7.74658L14 12.1332ZM2.66 7.74658C2.35478 8.14293 2.18872 8.62883 2.1875 9.12908V20.0957C2.18794 20.5562 2.32739 21.0058 2.5876 21.3857C2.8478 21.7656 3.21664 22.0581 3.64583 22.2249L12.6233 25.7249C13.0642 25.886 13.5307 25.965 14 25.9582V12.1332L2.66 7.74658Z" fill="white"/>
<path d="M24.3542 20.0666L15.3767 23.5666C14.9358 23.7277 14.4693 23.8068 14 23.8V25.9583C14.4707 25.9576 14.9373 25.8706 15.3767 25.7016L24.3542 22.2016C24.7834 22.0348 25.1522 21.7423 25.4124 21.3624C25.6726 20.9825 25.8121 20.5329 25.8125 20.0725V17.9316C25.8116 18.3927 25.6721 18.8429 25.412 19.2237C25.1519 19.6044 24.7834 19.8981 24.3542 20.0666ZM3.64583 20.0666C3.21664 19.8981 2.84805 19.6044 2.58798 19.2237C2.32791 18.8429 2.18837 18.3927 2.1875 17.9316V20.0958C2.18794 20.5563 2.32739 21.0059 2.5876 21.3858C2.8478 21.7657 3.21664 22.0582 3.64583 22.225L12.6233 25.725C13.0642 25.886 13.5307 25.9651 14 25.9583V23.8C13.5293 23.7993 13.0627 23.7123 12.6233 23.5433L3.64583 20.0666Z" fill="#DAEDF7"/>
<path d="M14 12.1332V25.9582M14 12.1332L25.34 7.74658C25.6452 8.14293 25.8113 8.62883 25.8125 9.12908V20.0724C25.8121 20.5329 25.6726 20.9825 25.4124 21.3624C25.1522 21.7423 24.7834 22.0348 24.3542 22.2016L15.3767 25.7016C14.9373 25.8706 14.4707 25.9576 14 25.9582M14 12.1332L2.66 7.74658C2.35478 8.14293 2.18872 8.62883 2.1875 9.12908V20.0957C2.18794 20.5562 2.32739 21.0058 2.5876 21.3857C2.8478 21.7656 3.21664 22.0581 3.64583 22.2249L12.6233 25.7249C13.0642 25.886 13.5307 25.965 14 25.9582" stroke="#45413C" stroke-width="0.75" stroke-linecap="round" stroke-linejoin="round"/>
<path d="M14.0002 12.1333L25.3402 7.74662C25.0847 7.4136 24.7441 7.15565 24.3543 6.99996L15.3768 3.49996C14.4915 3.15496 13.5088 3.15496 12.6235 3.49996L3.64599 6.99996C3.25551 7.15727 2.91487 7.41729 2.66016 7.75246L14.0002 12.1333Z" fill="white"/>
<path d="M24.3543 6.99992L23.6077 6.71409L15.1668 9.96909C14.4054 10.2665 13.5599 10.2665 12.7985 9.96909L4.39266 6.70825L3.64599 6.99992C3.25551 7.15723 2.91487 7.41725 2.66016 7.75242L14.0002 12.1333L25.3402 7.74659C25.0847 7.41356 24.7441 7.15561 24.3543 6.99992Z" fill="#DAEDF7"/>
<path d="M14.0002 12.1333L25.3402 7.74662C25.0847 7.4136 24.7441 7.15565 24.3543 6.99996L15.3768 3.49996C14.4915 3.15496 13.5088 3.15496 12.6235 3.49996L3.64599 6.99996C3.25551 7.15727 2.91487 7.41729 2.66016 7.75246L14.0002 12.1333Z" stroke="#45413C" stroke-width="0.75" stroke-linecap="round" stroke-linejoin="round"/>
<path d="M11.334 7.51907C11.334 7.8223 11.6148 8.11311 12.1148 8.32752C12.6147 8.54194 13.2928 8.6624 13.9998 8.6624C14.7068 8.6624 15.3849 8.54194 15.8848 8.32752C16.3848 8.11311 16.6657 7.8223 16.6657 7.51907C16.6657 7.21583 16.3848 6.92502 15.8848 6.71061C15.3849 6.49619 14.7068 6.37573 13.9998 6.37573C13.2928 6.37573 12.6147 6.49619 12.1148 6.71061C11.6148 6.92502 11.334 7.21583 11.334 7.51907Z" fill="#FF6242" stroke="#45413C" stroke-width="0.75" stroke-linecap="round" stroke-linejoin="round"/>
<path d="M6.74927 14.0466C6.88344 14.9857 6.57427 15.7966 6.0551 15.8841C5.53594 15.9716 4.99927 15.2599 4.88844 14.3207C4.7776 13.3816 5.06344 12.5707 5.5826 12.4891C6.10177 12.4074 6.6151 13.1132 6.74927 14.0466ZM22.3709 12.1332C22.2368 13.0666 22.5459 13.8832 23.0709 13.9649C23.5959 14.0466 24.1209 13.3407 24.2376 12.4016C24.3543 11.4624 24.0626 10.6516 23.5434 10.5699C23.0243 10.4882 22.5051 11.1941 22.3709 12.1332ZM15.9368 21.2741C15.8026 22.2132 16.1118 23.0241 16.6368 23.1116C17.1618 23.1991 17.6868 22.4874 17.8034 21.5482C17.9201 20.6091 17.6284 19.7982 17.1093 19.7166C16.5901 19.6349 16.0709 20.3407 15.9368 21.2741ZM19.3201 16.7299C19.1859 17.6632 19.5009 18.4799 20.0201 18.5616C20.5393 18.6432 21.0701 17.9374 21.1868 17.0041C21.3034 16.0707 21.0059 15.2541 20.4868 15.1666C19.9676 15.0791 19.4601 15.7907 19.3201 16.7299ZM10.2026 19.3957C10.3368 20.3349 10.0276 21.1457 9.5026 21.2274C8.9776 21.3091 8.4526 20.6032 8.33594 19.6699C8.21927 18.7366 8.51094 17.9199 9.0301 17.8324C9.54927 17.7449 10.0684 18.4566 10.2026 19.3957Z" fill="#656769" stroke="#45413C" stroke-width="0.75" stroke-linecap="round" stroke-linejoin="round"/>
</svg>
