<svg width="28" height="28" viewBox="0 0 28 28" fill="none" xmlns="http://www.w3.org/2000/svg">
<g clip-path="url(#clip0_63_2224)">
<path d="M18.6667 22.5556L22.5556 18.6667L4.66672 0.777832H0.777832V4.66672L18.6667 22.5556Z" fill="#CCD6DD"/>
<path d="M0.777832 0.777832V4.66672L18.6667 22.5556L20.6112 20.6112L0.777832 0.777832Z" fill="#9AAAB4"/>
<path d="M25.9965 25.5174C26.2174 25.2965 26.3527 25.0305 26.4095 24.7645L22.3324 19.9462L21.7871 19.4002C21.3485 18.9615 20.566 19.0323 20.0387 19.5597L19.5611 20.0357C19.0346 20.5622 18.9638 21.3447 19.4025 21.7833L19.9788 22.3597L24.7621 26.408C25.0305 26.352 25.2973 26.2159 25.5197 25.9942L25.9965 25.5174Z" fill="#D99E82"/>
<path d="M25.9966 25.5173C26.2174 25.2964 26.3528 25.0304 26.4096 24.7644L25.3658 23.5308L24.7926 26.3962C25.05 26.3363 25.3067 26.2072 25.5198 25.9933L25.9966 25.5173ZM23.4221 21.2348L22.7314 24.6889L23.7114 25.5181L24.3492 22.3292L23.4221 21.2348ZM22.3324 19.9461L21.7872 19.4001C21.7129 19.3284 21.6272 19.2695 21.5337 19.2258L20.773 23.0307L21.753 23.8598L22.4973 20.1397L22.3324 19.9461ZM20.465 19.2554C20.3067 19.3322 20.1626 19.4353 20.0388 19.5603L19.5612 20.0355C19.3742 20.2212 19.2375 20.4514 19.1638 20.7044C19.0533 21.1011 19.128 21.5094 19.4026 21.7832L19.8661 22.2467L20.465 19.2554ZM20.465 19.2554C20.465 19.2543 20.465 19.2543 20.465 19.2554V19.2554Z" fill="#BF6952"/>
<path d="M25.8611 27.9999C27.0423 27.9999 27.9999 27.0423 27.9999 25.8611C27.9999 24.6798 27.0423 23.7222 25.8611 23.7222C24.6798 23.7222 23.7222 24.6798 23.7222 25.8611C23.7222 27.0423 24.6798 27.9999 25.8611 27.9999Z" fill="#8A4633"/>
<path d="M23.0425 17.3632C23.1172 17.4378 23.1765 17.5264 23.217 17.624C23.2574 17.7216 23.2782 17.8261 23.2782 17.9318C23.2782 18.0374 23.2574 18.1419 23.217 18.2395C23.1765 18.3371 23.1172 18.4257 23.0425 18.5003L18.3043 23.2385C18.2296 23.3132 18.141 23.3724 18.0434 23.4128C17.9458 23.4532 17.8413 23.474 17.7357 23.474C17.6301 23.474 17.5256 23.4532 17.428 23.4128C17.3304 23.3724 17.2418 23.3132 17.1671 23.2385C17.0925 23.1639 17.0333 23.0752 16.9928 22.9777C16.9524 22.8801 16.9316 22.7756 16.9316 22.67C16.9316 22.5644 16.9524 22.4598 16.9928 22.3623C17.0333 22.2647 17.0925 22.1761 17.1671 22.1014L21.9054 17.3632C21.98 17.2885 22.0686 17.2292 22.1662 17.1887C22.2637 17.1483 22.3683 17.1274 22.4739 17.1274C22.5795 17.1274 22.6841 17.1483 22.7817 17.1887C22.8792 17.2292 22.9679 17.2885 23.0425 17.3632Z" fill="#FFAC33"/>
<path d="M17.1673 24.5987C17.919 24.5987 18.5284 23.9893 18.5284 23.2376C18.5284 22.4859 17.919 21.8765 17.1673 21.8765C16.4155 21.8765 15.8062 22.4859 15.8062 23.2376C15.8062 23.9893 16.4155 24.5987 17.1673 24.5987Z" fill="#FFAC33"/>
<path d="M23.0423 18.7234C23.794 18.7234 24.4034 18.1141 24.4034 17.3623C24.4034 16.6106 23.794 16.0012 23.0423 16.0012C22.2905 16.0012 21.6812 16.6106 21.6812 17.3623C21.6812 18.1141 22.2905 18.7234 23.0423 18.7234Z" fill="#FFAC33"/>
<path d="M17.1669 24.0155C17.5965 24.0155 17.9447 23.6673 17.9447 23.2377C17.9447 22.8082 17.5965 22.46 17.1669 22.46C16.7374 22.46 16.3892 22.8082 16.3892 23.2377C16.3892 23.6673 16.7374 24.0155 17.1669 24.0155Z" fill="#FFCC4D"/>
<path d="M23.0424 18.14C23.472 18.14 23.8202 17.7918 23.8202 17.3623C23.8202 16.9327 23.472 16.5845 23.0424 16.5845C22.6129 16.5845 22.2646 16.9327 22.2646 17.3623C22.2646 17.7918 22.6129 18.14 23.0424 18.14Z" fill="#FFCC4D"/>
<path d="M26.369 22.8216C26.4242 22.8765 26.4681 22.9419 26.498 23.0138C26.5279 23.0857 26.5433 23.1629 26.5433 23.2408C26.5433 23.3187 26.5279 23.3959 26.498 23.4678C26.4681 23.5398 26.4242 23.6051 26.369 23.66L23.6654 26.3628C23.6104 26.4179 23.545 26.4615 23.4731 26.4913C23.4011 26.5211 23.324 26.5365 23.2462 26.5365C23.1683 26.5365 23.0912 26.5211 23.0193 26.4913C22.9474 26.4615 22.882 26.4179 22.827 26.3628C22.7719 26.3078 22.7282 26.2424 22.6984 26.1705C22.6687 26.0985 22.6533 26.0215 22.6533 25.9436C22.6533 25.8657 22.6687 25.7886 22.6984 25.7167C22.7282 25.6448 22.7719 25.5794 22.827 25.5244L25.5305 22.8216C25.5855 22.7663 25.6508 22.7225 25.7227 22.6925C25.7947 22.6626 25.8718 22.6472 25.9497 22.6472C26.0277 22.6472 26.1048 22.6626 26.1768 22.6925C26.2487 22.7225 26.314 22.7663 26.369 22.8216Z" fill="#FFAC33"/>
<path d="M9.33322 22.5556L5.44434 18.6667L23.3332 0.777832H27.2221V4.66672L9.33322 22.5556Z" fill="#CCD6DD"/>
<path d="M27.222 0.777832V4.66672L9.33312 22.5556L7.38867 20.6112L27.222 0.777832Z" fill="#9AAAB4"/>
<path d="M2.00333 25.5174C1.79601 25.3115 1.65259 25.0501 1.59033 24.7645L5.66744 19.9462L6.21267 19.4002C6.65133 18.9615 7.43378 19.0323 7.96111 19.5597L8.43789 20.0357C8.96444 20.5622 9.03522 21.3447 8.59655 21.7833L8.02022 22.3597L3.23689 26.408C2.94962 26.3463 2.68644 26.2026 2.47933 25.9942L2.00333 25.5174Z" fill="#D99E82"/>
<path d="M2.00333 25.5173C1.79601 25.3113 1.65259 25.0499 1.59033 24.7644L2.63411 23.5308L3.20733 26.3962C2.93183 26.333 2.67975 26.1934 2.48011 25.9933L2.00333 25.5173ZM4.57778 21.2348L5.26844 24.6889L4.28844 25.5181L3.65067 22.3292L4.57778 21.2348ZM5.66744 19.9461L6.21267 19.4001C6.28696 19.3284 6.37265 19.2695 6.46622 19.2258L7.22689 23.0307L6.24689 23.8598L5.50255 20.1397L5.66744 19.9461ZM7.53489 19.2554C7.68655 19.3293 7.832 19.4304 7.96111 19.5603L8.43789 20.0363C8.63544 20.2338 8.76844 20.4672 8.83533 20.7052C8.94578 21.1018 8.87111 21.5102 8.59655 21.7839L8.133 22.2475L7.53489 19.2554ZM7.53489 19.2554C7.53489 19.2543 7.53489 19.2543 7.53489 19.2554V19.2554Z" fill="#BF6952"/>
<path d="M2.13889 27.9999C3.32016 27.9999 4.27778 27.0423 4.27778 25.8611C4.27778 24.6798 3.32016 23.7222 2.13889 23.7222C0.957613 23.7222 0 24.6798 0 25.8611C0 27.0423 0.957613 27.9999 2.13889 27.9999Z" fill="#8A4633"/>
<path d="M4.95744 17.3632C4.8827 17.4378 4.82341 17.5264 4.78296 17.624C4.7425 17.7216 4.72168 17.8261 4.72168 17.9318C4.72168 18.0374 4.7425 18.1419 4.78296 18.2395C4.82341 18.3371 4.8827 18.4257 4.95744 18.5003L9.69566 23.2385C9.77032 23.3132 9.85896 23.3724 9.95652 23.4128C10.0541 23.4532 10.1586 23.474 10.2642 23.474C10.3698 23.474 10.4744 23.4532 10.5719 23.4128C10.6695 23.3724 10.7581 23.3132 10.8328 23.2385C10.9074 23.1639 10.9667 23.0752 11.0071 22.9777C11.0475 22.8801 11.0683 22.7756 11.0683 22.67C11.0683 22.5644 11.0475 22.4598 11.0071 22.3623C10.9667 22.2647 10.9074 22.1761 10.8328 22.1014L6.09455 17.3632C6.01993 17.2885 5.9313 17.2292 5.83374 17.1887C5.73618 17.1483 5.63161 17.1274 5.52599 17.1274C5.42038 17.1274 5.3158 17.1483 5.21824 17.1887C5.12069 17.2292 5.03206 17.2885 4.95744 17.3632Z" fill="#FFAC33"/>
<path d="M10.8328 24.5987C11.5845 24.5987 12.1939 23.9893 12.1939 23.2376C12.1939 22.4859 11.5845 21.8765 10.8328 21.8765C10.0811 21.8765 9.47168 22.4859 9.47168 23.2376C9.47168 23.9893 10.0811 24.5987 10.8328 24.5987Z" fill="#FFAC33"/>
<path d="M4.95779 18.7234C5.70951 18.7234 6.3189 18.1141 6.3189 17.3623C6.3189 16.6106 5.70951 16.0012 4.95779 16.0012C4.20607 16.0012 3.59668 16.6106 3.59668 17.3623C3.59668 18.1141 4.20607 18.7234 4.95779 18.7234Z" fill="#FFAC33"/>
<path d="M10.833 24.0155C11.2625 24.0155 11.6107 23.6673 11.6107 23.2377C11.6107 22.8082 11.2625 22.46 10.833 22.46C10.4034 22.46 10.0552 22.8082 10.0552 23.2377C10.0552 23.6673 10.4034 24.0155 10.833 24.0155Z" fill="#FFCC4D"/>
<path d="M4.95747 18.14C5.38702 18.14 5.73524 17.7918 5.73524 17.3623C5.73524 16.9327 5.38702 16.5845 4.95747 16.5845C4.52791 16.5845 4.17969 16.9327 4.17969 17.3623C4.17969 17.7918 4.52791 18.14 4.95747 18.14Z" fill="#FFCC4D"/>
<path d="M1.63092 22.8216C1.57566 22.8765 1.5318 22.9419 1.50188 23.0138C1.47195 23.0857 1.45654 23.1629 1.45654 23.2408C1.45654 23.3187 1.47195 23.3959 1.50188 23.4678C1.5318 23.5398 1.57566 23.6051 1.63092 23.66L4.33448 26.3628C4.38953 26.4179 4.45489 26.4615 4.52682 26.4913C4.59875 26.5211 4.67584 26.5365 4.7537 26.5365C4.83156 26.5365 4.90865 26.5211 4.98058 26.4913C5.05251 26.4615 5.11787 26.4179 5.17292 26.3628C5.22798 26.3078 5.27165 26.2424 5.30144 26.1705C5.33124 26.0985 5.34657 26.0215 5.34657 25.9436C5.34657 25.8657 5.33124 25.7886 5.30144 25.7167C5.27165 25.6448 5.22798 25.5794 5.17292 25.5244L2.46937 22.8216C2.41443 22.7663 2.34911 22.7225 2.27717 22.6925C2.20522 22.6626 2.12807 22.6472 2.05014 22.6472C1.97222 22.6472 1.89507 22.6626 1.82312 22.6925C1.75118 22.7225 1.68586 22.7663 1.63092 22.8216Z" fill="#FFAC33"/>
</g>
<defs>
<clipPath id="clip0_63_2224">
<rect width="28" height="28" fill="white"/>
</clipPath>
</defs>
</svg>
